<svg viewBox="0 0 1100 560" xmlns="http://www.w3.org/2000/svg"><line x1="110" y1="480" x2="1040" y2="480" stroke="#D4CDBF" stroke-width="1"/><text x="98" y="487" text-anchor="end" font-size="22" fill="#8B867B">0.0</text><line x1="110" y1="370" x2="1040" y2="370" stroke="#D4CDBF" stroke-width="1"/><text x="98" y="377" text-anchor="end" font-size="22" fill="#8B867B">0.2</text><line x1="110" y1="260" x2="1040" y2="260" stroke="#D4CDBF" stroke-width="1"/><text x="98" y="267" text-anchor="end" font-size="22" fill="#8B867B">0.4</text><line x1="110" y1="150.00000000000006" x2="1040" y2="150.00000000000006" stroke="#D4CDBF" stroke-width="1"/><text x="98" y="157.00000000000006" text-anchor="end" font-size="22" fill="#8B867B">0.6</text><line x1="110" y1="40" x2="1040" y2="40" stroke="#D4CDBF" stroke-width="1"/><text x="98" y="47" text-anchor="end" font-size="22" fill="#8B867B">0.8</text><line x1="110" y1="480" x2="1040" y2="480" stroke="#2C2A27" stroke-width="2"/><line x1="110" y1="40" x2="110" y2="480" stroke="#2C2A27" stroke-width="2"/><circle cx="281.1280663656561" cy="471.53" r="8" fill="#B84A2E" opacity=".55"/><circle cx="310.551761980782" cy="447.275" r="8" fill="#B84A2E" opacity=".55"/><circle cx="281.4195928879511" cy="413.505" r="8" fill="#B84A2E" opacity=".55"/><circle cx="232.0181847947789" cy="348.605" r="8" fill="#B84A2E" opacity=".55"/><circle cx="264.91233326808276" cy="329.795" r="8" fill="#B84A2E" opacity=".55"/><circle cx="267.90504016153415" cy="328.255" r="8" fill="#B84A2E" opacity=".55"/><circle cx="283.72342202981673" cy="319.84000000000003" r="8" fill="#B84A2E" opacity=".55"/><circle cx="292.762676060831" cy="314.45000000000005" r="8" fill="#B84A2E" opacity=".55"/><circle cx="310.85988305903857" cy="288.21500000000003" r="8" fill="#B84A2E" opacity=".55"/><circle cx="306.21907165641994" cy="280.68" r="8" fill="#B84A2E" opacity=".55"/><circle cx="291.68321476697776" cy="269.24" r="8" fill="#B84A2E" opacity=".55"/><circle cx="280.79955089628635" cy="262.915" r="8" fill="#B84A2E" opacity=".55"/><circle cx="270.4132232650953" cy="257.415" r="8" fill="#B84A2E" opacity=".55"/><circle cx="254.37088407903028" cy="249.11" r="8" fill="#B84A2E" opacity=".55"/><circle cx="218.96163599313869" cy="213.69" r="8" fill="#B84A2E" opacity=".55"/><circle cx="304.04602056128317" cy="155.66500000000002" r="8" fill="#B84A2E" opacity=".55"/><circle cx="311.46274346128865" cy="140.98000000000008" r="8" fill="#B84A2E" opacity=".55"/><circle cx="308.17543219212666" cy="132.84000000000003" r="8" fill="#B84A2E" opacity=".55"/><circle cx="293.6443108458228" cy="120.245" r="8" fill="#B84A2E" opacity=".55"/><circle cx="252.59086061566018" cy="97.91500000000002" r="8" fill="#B84A2E" opacity=".55"/><circle cx="232.6552008869634" cy="85.98000000000002" r="8" fill="#B84A2E" opacity=".55"/><circle cx="229.58326710338497" cy="49.954999999999984" r="8" fill="#B84A2E" opacity=".55"/><circle cx="235.28083471560467" cy="45.83000000000004" r="8" fill="#B84A2E" opacity=".55"/><line x1="185" y1="262.915" x2="345" y2="262.915" stroke="#B84A2E" stroke-width="5" stroke-linecap="round"/><text x="265" y="516" text-anchor="middle" font-size="26" font-weight="600" fill="#2C2A27" font-family="var(--ff-sans)">GNNExplainer</text><text x="265" y="542" text-anchor="middle" font-size="22" fill="#8B867B" font-family="var(--ff-sans)">mediana 0.39</text><circle cx="535.6507512058546" cy="480" r="8" fill="#6B8E23" opacity=".55"/><circle cx="535.6507512058546" cy="480" r="8" fill="#6B8E23" opacity=".55"/><circle cx="535.6507512058546" cy="480" r="8" fill="#6B8E23" opacity=".55"/><circle cx="535.6507512058546" cy="480" r="8" fill="#6B8E23" opacity=".55"/><circle cx="535.6507512058546" cy="480" r="8" fill="#6B8E23" opacity=".55"/><circle cx="535.6507512058546" cy="480" r="8" fill="#6B8E23" opacity=".55"/><circle cx="535.6507512058546" cy="480" r="8" fill="#6B8E23" opacity=".55"/><circle cx="579.8808754930188" cy="426.485" r="8" fill="#6B8E23" opacity=".55"/><circle cx="582.7413201644779" cy="425" r="8" fill="#6B8E23" opacity=".55"/><circle cx="621.3152862805622" cy="389.305" r="8" fill="#6B8E23" opacity=".55"/><circle cx="604.0335367968623" cy="370" r="8" fill="#6B8E23" opacity=".55"/><circle cx="597.8354132530607" cy="366.15" r="8" fill="#6B8E23" opacity=".55"/><circle cx="542.3217761108799" cy="335.24" r="8" fill="#6B8E23" opacity=".55"/><circle cx="529.4958452642522" cy="321.27" r="8" fill="#6B8E23" opacity=".55"/><circle cx="528.5392109076151" cy="315.33000000000004" r="8" fill="#6B8E23" opacity=".55"/><circle cx="543.3028948250914" cy="296.685" r="8" fill="#6B8E23" opacity=".55"/><circle cx="543.3028948250914" cy="296.685" r="8" fill="#6B8E23" opacity=".55"/><circle cx="543.3028948250914" cy="296.685" r="8" fill="#6B8E23" opacity=".55"/><circle cx="543.3028948250914" cy="296.685" r="8" fill="#6B8E23" opacity=".55"/><circle cx="543.3028948250914" cy="296.685" r="8" fill="#6B8E23" opacity=".55"/><circle cx="543.3028948250914" cy="296.685" r="8" fill="#6B8E23" opacity=".55"/><circle cx="543.3028948250914" cy="296.685" r="8" fill="#6B8E23" opacity=".55"/><circle cx="543.3028948250914" cy="296.685" r="8" fill="#6B8E23" opacity=".55"/><line x1="495" y1="366.15" x2="655" y2="366.15" stroke="#6B8E23" stroke-width="5" stroke-linecap="round"/><text x="575" y="516" text-anchor="middle" font-size="26" font-weight="600" fill="#2C2A27" font-family="var(--ff-sans)">GNNShap</text><text x="575" y="542" text-anchor="middle" font-size="22" fill="#8B867B" font-family="var(--ff-sans)">mediana 0.21</text><circle cx="926.9331581656696" cy="480" r="8" fill="#8A7A5C" opacity=".55"/><circle cx="926.9331581656696" cy="480" r="8" fill="#8A7A5C" opacity=".55"/><circle cx="926.9331581656696" cy="480" r="8" fill="#8A7A5C" opacity=".55"/><circle cx="926.9331581656696" cy="480" r="8" fill="#8A7A5C" opacity=".55"/><circle cx="926.9331581656696" cy="480" r="8" fill="#8A7A5C" opacity=".55"/><circle cx="926.9331581656696" cy="480" r="8" fill="#8A7A5C" opacity=".55"/><circle cx="926.9331581656696" cy="480" r="8" fill="#8A7A5C" opacity=".55"/><circle cx="926.9331581656696" cy="480" r="8" fill="#8A7A5C" opacity=".55"/><circle cx="926.9331581656696" cy="480" r="8" fill="#8A7A5C" opacity=".55"/><circle cx="926.9331581656696" cy="480" r="8" fill="#8A7A5C" opacity=".55"/><circle cx="926.9331581656696" cy="480" r="8" fill="#8A7A5C" opacity=".55"/><circle cx="926.9331581656696" cy="480" r="8" fill="#8A7A5C" opacity=".55"/><circle cx="926.9331581656696" cy="480" r="8" fill="#8A7A5C" opacity=".55"/><circle cx="926.9331581656696" cy="480" r="8" fill="#8A7A5C" opacity=".55"/><circle cx="926.9331581656696" cy="480" r="8" fill="#8A7A5C" opacity=".55"/><circle cx="926.9331581656696" cy="480" r="8" fill="#8A7A5C" opacity=".55"/><circle cx="926.9331581656696" cy="480" r="8" fill="#8A7A5C" opacity=".55"/><circle cx="926.9331581656696" cy="480" r="8" fill="#8A7A5C" opacity=".55"/><circle cx="926.9331581656696" cy="480" r="8" fill="#8A7A5C" opacity=".55"/><circle cx="926.9331581656696" cy="480" r="8" fill="#8A7A5C" opacity=".55"/><circle cx="926.9331581656696" cy="480" r="8" fill="#8A7A5C" opacity=".55"/><circle cx="926.9331581656696" cy="480" r="8" fill="#8A7A5C" opacity=".55"/><circle cx="926.9331581656696" cy="480" r="8" fill="#8A7A5C" opacity=".55"/><line x1="805" y1="480" x2="965" y2="480" stroke="#8A7A5C" stroke-width="5" stroke-linecap="round"/><text x="885" y="516" text-anchor="middle" font-size="26" font-weight="600" fill="#2C2A27" font-family="var(--ff-sans)">PGExplainer</text><text x="885" y="542" text-anchor="middle" font-size="22" fill="#8B867B" font-family="var(--ff-sans)">mediana 0.00</text><text transform="rotate(-90 35 260)" x="35" y="260" text-anchor="middle" font-size="24" fill="#5A564F" font-family="var(--ff-sans)">Spearman medio</text></svg>