<svg viewBox="0 0 1100 560" xmlns="http://www.w3.org/2000/svg"><line x1="440" y1="40" x2="440" y2="500" stroke="#D4CDBF" stroke-width="1"/><text x="440" y="528" text-anchor="middle" font-size="22" fill="#8B867B">0.00</text><line x1="590" y1="40" x2="590" y2="500" stroke="#D4CDBF" stroke-width="1"/><text x="590" y="528" text-anchor="middle" font-size="22" fill="#8B867B">0.25</text><line x1="740" y1="40" x2="740" y2="500" stroke="#D4CDBF" stroke-width="1"/><text x="740" y="528" text-anchor="middle" font-size="22" fill="#8B867B">0.50</text><line x1="890" y1="40" x2="890" y2="500" stroke="#D4CDBF" stroke-width="1"/><text x="890" y="528" text-anchor="middle" font-size="22" fill="#8B867B">0.75</text><line x1="1040" y1="40" x2="1040" y2="500" stroke="#D4CDBF" stroke-width="1"/><text x="1040" y="528" text-anchor="middle" font-size="22" fill="#8B867B">1.00</text><line x1="440" y1="500" x2="1040" y2="500" stroke="#2C2A27" stroke-width="2"/><line x1="440" y1="40" x2="440" y2="500" stroke="#2C2A27" stroke-width="2"/><rect x="440" y="46.900000000000006" width="473.64" height="32.199999999999996" fill="#B84A2E"/><text x="424" y="71" text-anchor="end" font-size="22" fill="#2C2A27" font-family="var(--ff-sans)" font-weight="600">1. TAGCN · 1:50 · focal_loss</text><text x="923.64" y="71" font-size="24" fill="#2C2A27" font-family="var(--ff-mono)" font-weight="600">0.789</text><rect x="440" y="92.9" width="469.14000000000004" height="32.199999999999996" fill="#B84A2E"/><text x="424" y="117" text-anchor="end" font-size="22" fill="#2C2A27" font-family="var(--ff-sans)" font-weight="600">2. GAT · 1:50 · focal_loss</text><text x="919.1400000000001" y="117" font-size="24" fill="#2C2A27" font-family="var(--ff-mono)" font-weight="600">0.782</text><rect x="440" y="138.9" width="429.84000000000003" height="32.199999999999996" fill="#8A7A5C"/><text x="424" y="163" text-anchor="end" font-size="22" fill="#2C2A27" font-family="var(--ff-sans)" font-weight="600">3. GAT · 1:10 · none</text><text x="879.84" y="163" font-size="24" fill="#2C2A27" font-family="var(--ff-mono)" font-weight="600">0.716</text><rect x="440" y="184.9" width="416.82" height="32.199999999999996" fill="#8A7A5C"/><text x="424" y="209" text-anchor="end" font-size="22" fill="#2C2A27" font-family="var(--ff-sans)" font-weight="600">4. GraphSAGE · 1:10 · none</text><text x="866.8199999999999" y="209" font-size="24" fill="#2C2A27" font-family="var(--ff-mono)" font-weight="600">0.695</text><rect x="440" y="230.9" width="392.46000000000004" height="32.199999999999996" fill="#8A7A5C"/><text x="424" y="255" text-anchor="end" font-size="22" fill="#2C2A27" font-family="var(--ff-sans)" font-weight="600">5. GAT · 1:10 · focal_loss</text><text x="842.46" y="255" font-size="24" fill="#2C2A27" font-family="var(--ff-mono)" font-weight="600">0.654</text><rect x="440" y="276.9" width="378.71999999999997" height="32.199999999999996" fill="#8A7A5C"/><text x="424" y="301" text-anchor="end" font-size="22" fill="#2C2A27" font-family="var(--ff-sans)" font-weight="600">6. TAGCN · 1:10 · focal_loss</text><text x="828.72" y="301" font-size="24" fill="#2C2A27" font-family="var(--ff-mono)" font-weight="600">0.631</text><rect x="440" y="322.9" width="369.84" height="32.199999999999996" fill="#8A7A5C"/><text x="424" y="347" text-anchor="end" font-size="22" fill="#2C2A27" font-family="var(--ff-sans)" font-weight="600">7. GAT · 1:50 · class_weighting</text><text x="819.8399999999999" y="347" font-size="24" fill="#2C2A27" font-family="var(--ff-mono)" font-weight="600">0.616</text><rect x="440" y="368.9" width="353.82" height="32.199999999999996" fill="#8A7A5C"/><text x="424" y="393" text-anchor="end" font-size="22" fill="#2C2A27" font-family="var(--ff-sans)" font-weight="600">8. GraphSAGE · 1:1 · none</text><text x="803.8199999999999" y="393" font-size="24" fill="#2C2A27" font-family="var(--ff-mono)" font-weight="600">0.590</text><rect x="440" y="414.9" width="290.52000000000004" height="32.199999999999996" fill="#8A7A5C"/><text x="424" y="439" text-anchor="end" font-size="22" fill="#2C2A27" font-family="var(--ff-sans)" font-weight="600">9. GCN · 1:10 · class_weighting</text><text x="740.52" y="439" font-size="24" fill="#2C2A27" font-family="var(--ff-mono)" font-weight="600">0.484</text><rect x="440" y="460.9" width="251.88" height="32.199999999999996" fill="#8A7A5C"/><text x="424" y="485" text-anchor="end" font-size="22" fill="#2C2A27" font-family="var(--ff-sans)" font-weight="600">10. GraphSAGE · 1:10 · class_weighting</text><text x="701.88" y="485" font-size="24" fill="#2C2A27" font-family="var(--ff-mono)" font-weight="600">0.420</text></svg>