<svg viewBox="0 0 1100 620" xmlns="http://www.w3.org/2000/svg"><line x1="120" y1="510" x2="1040" y2="510" stroke="#D4CDBF" stroke-width="1" stroke-dasharray="3 4"/><text x="106" y="518" text-anchor="end" font-size="22" fill="#8B867B" font-family="var(--ff-sans)">0.0</text><line x1="120" y1="399.4117647058823" x2="1040" y2="399.4117647058823" stroke="#D4CDBF" stroke-width="1" stroke-dasharray="3 4"/><text x="106" y="407.4117647058823" text-anchor="end" font-size="22" fill="#8B867B" font-family="var(--ff-sans)">0.2</text><line x1="120" y1="288.8235294117647" x2="1040" y2="288.8235294117647" stroke="#D4CDBF" stroke-width="1" stroke-dasharray="3 4"/><text x="106" y="296.8235294117647" text-anchor="end" font-size="22" fill="#8B867B" font-family="var(--ff-sans)">0.4</text><line x1="120" y1="178.23529411764702" x2="1040" y2="178.23529411764702" stroke="#D4CDBF" stroke-width="1" stroke-dasharray="3 4"/><text x="106" y="186.23529411764702" text-anchor="end" font-size="22" fill="#8B867B" font-family="var(--ff-sans)">0.6</text><line x1="120" y1="67.64705882352939" x2="1040" y2="67.64705882352939" stroke="#D4CDBF" stroke-width="1" stroke-dasharray="3 4"/><text x="106" y="75.64705882352939" text-anchor="end" font-size="22" fill="#8B867B" font-family="var(--ff-sans)">0.8</text><line x1="120" y1="510" x2="1040" y2="510" stroke="#2C2A27" stroke-width="2"/><line x1="120" y1="40" x2="120" y2="510" stroke="#2C2A27" stroke-width="2"/><rect x="158.64" y="276.38235294117646" width="106.72" height="233.61764705882354" fill="#6B8E23" opacity="0.75"/><line x1="212" y1="204.55529411764707" x2="212" y2="348.2094117647059" stroke="#2C2A27" stroke-width="2.5"/><line x1="188" y1="204.55529411764707" x2="236" y2="204.55529411764707" stroke="#2C2A27" stroke-width="2.5"/><line x1="188" y1="348.2094117647059" x2="236" y2="348.2094117647059" stroke="#2C2A27" stroke-width="2.5"/><text x="212" y="262.38235294117646" text-anchor="middle" font-size="22" fill="#2C2A27" font-family="var(--ff-mono)" font-weight="600">0.422</text><text x="212" y="546" text-anchor="middle" font-size="22" fill="#2C2A27" font-family="var(--ff-sans)" font-weight="600">1:1</text><text x="212" y="570" text-anchor="middle" font-size="18" fill="#8B867B" font-family="var(--ff-sans)">n=3</text><rect x="342.64" y="216.22235294117644" width="106.72" height="293.77764705882356" fill="#6B8E23" opacity="0.75"/><line x1="396" y1="131.67764705882354" x2="396" y2="300.7670588235294" stroke="#2C2A27" stroke-width="2.5"/><line x1="372" y1="131.67764705882354" x2="420" y2="131.67764705882354" stroke="#2C2A27" stroke-width="2.5"/><line x1="372" y1="300.7670588235294" x2="420" y2="300.7670588235294" stroke="#2C2A27" stroke-width="2.5"/><text x="396" y="202.22235294117644" text-anchor="middle" font-size="22" fill="#2C2A27" font-family="var(--ff-mono)" font-weight="600">0.531</text><text x="396" y="546" text-anchor="middle" font-size="22" fill="#2C2A27" font-family="var(--ff-sans)" font-weight="600">1:10</text><text x="396" y="570" text-anchor="middle" font-size="18" fill="#8B867B" font-family="var(--ff-sans)">n=8</text><rect x="526.64" y="406.26823529411763" width="106.72" height="103.73176470588237" fill="#B84A2E" opacity="0.9" stroke="#2C2A27" stroke-width="3"/><line x1="526.64" y1="414.26823529411763" x2="622.3717647058824" y2="510" stroke="#2C2A27" stroke-width="1.2" opacity="0.25"/><line x1="526.64" y1="430.26823529411763" x2="606.3717647058824" y2="510" stroke="#2C2A27" stroke-width="1.2" opacity="0.25"/><line x1="526.64" y1="446.26823529411763" x2="590.3717647058824" y2="510" stroke="#2C2A27" stroke-width="1.2" opacity="0.25"/><line x1="526.64" y1="462.26823529411763" x2="574.3717647058824" y2="510" stroke="#2C2A27" stroke-width="1.2" opacity="0.25"/><line x1="526.64" y1="478.26823529411763" x2="558.3717647058824" y2="510" stroke="#2C2A27" stroke-width="1.2" opacity="0.25"/><line x1="526.64" y1="494.26823529411763" x2="542.3717647058824" y2="510" stroke="#2C2A27" stroke-width="1.2" opacity="0.25"/><line x1="580" y1="335.04941176470584" x2="580" y2="477.4870588235294" stroke="#2C2A27" stroke-width="2.5"/><line x1="556" y1="335.04941176470584" x2="604" y2="335.04941176470584" stroke="#2C2A27" stroke-width="2.5"/><line x1="556" y1="477.4870588235294" x2="604" y2="477.4870588235294" stroke="#2C2A27" stroke-width="2.5"/><text x="580" y="392.26823529411763" text-anchor="middle" font-size="22" fill="#2C2A27" font-family="var(--ff-mono)" font-weight="600">0.188</text><text x="580" y="546" text-anchor="middle" font-size="22" fill="#B84A2E" font-family="var(--ff-sans)" font-weight="700">1:30 · NATIVO</text><text x="580" y="570" text-anchor="middle" font-size="18" fill="#8B867B" font-family="var(--ff-sans)">n=6</text><rect x="710.64" y="182.05058823529413" width="106.72" height="327.94941176470587" fill="#E58A6E" opacity="0.75"/><line x1="764" y1="83.7376470588236" x2="764" y2="280.3635294117647" stroke="#2C2A27" stroke-width="2.5"/><line x1="740" y1="83.7376470588236" x2="788" y2="83.7376470588236" stroke="#2C2A27" stroke-width="2.5"/><line x1="740" y1="280.3635294117647" x2="788" y2="280.3635294117647" stroke="#2C2A27" stroke-width="2.5"/><text x="764" y="168.05058823529413" text-anchor="middle" font-size="22" fill="#2C2A27" font-family="var(--ff-mono)" font-weight="600">0.593</text><text x="764" y="546" text-anchor="middle" font-size="22" fill="#2C2A27" font-family="var(--ff-sans)" font-weight="600">1:50</text><text x="764" y="570" text-anchor="middle" font-size="18" fill="#8B867B" font-family="var(--ff-sans)">n=5</text><rect x="894.64" y="377.90235294117645" width="106.72" height="132.09764705882355" fill="#6B8E23" opacity="0.75"/><line x1="948" y1="377.90235294117645" x2="948" y2="377.90235294117645" stroke="#2C2A27" stroke-width="2.5"/><line x1="924" y1="377.90235294117645" x2="972" y2="377.90235294117645" stroke="#2C2A27" stroke-width="2.5"/><line x1="924" y1="377.90235294117645" x2="972" y2="377.90235294117645" stroke="#2C2A27" stroke-width="2.5"/><text x="948" y="363.90235294117645" text-anchor="middle" font-size="22" fill="#2C2A27" font-family="var(--ff-mono)" font-weight="600">0.239</text><text x="948" y="546" text-anchor="middle" font-size="22" fill="#2C2A27" font-family="var(--ff-sans)" font-weight="600">1:100</text><text x="948" y="570" text-anchor="middle" font-size="18" fill="#8B867B" font-family="var(--ff-sans)">n=1</text><text x="580" y="600" text-anchor="middle" font-size="24" fill="#5A564F" font-family="var(--ff-sans)">Escenario</text><text transform="rotate(-90 34 275)" x="34" y="275" text-anchor="middle" font-size="24" fill="#5A564F" font-family="var(--ff-sans)">Spearman medio (± std)</text><rect x="696" y="46" width="320" height="80" fill="#EEE8DE" stroke="#D4CDBF" stroke-width="1.5"/><rect x="712" y="64" width="28" height="14" fill="#6B8E23" opacity="0.75"/><text x="748" y="76" font-size="20" fill="#2C2A27" font-family="var(--ff-sans)">Escenarios forzados</text><rect x="712" y="92" width="28" height="14" fill="#B84A2E" opacity="0.9" stroke="#2C2A27" stroke-width="2"/><text x="748" y="104" font-size="20" fill="#B84A2E" font-family="var(--ff-sans)" font-weight="700">Escenario nativo (paradoja)</text></svg>