<svg viewBox="0 0 1100 560" xmlns="http://www.w3.org/2000/svg"><line x1="110" y1="480" x2="1040" y2="480" stroke="#D4CDBF" stroke-width="1"/><text x="98" y="487" text-anchor="end" font-size="22" fill="#8B867B">0.0</text><line x1="110" y1="382.22222222222223" x2="1040" y2="382.22222222222223" stroke="#D4CDBF" stroke-width="1"/><text x="98" y="389.22222222222223" text-anchor="end" font-size="22" fill="#8B867B">0.2</text><line x1="110" y1="284.44444444444446" x2="1040" y2="284.44444444444446" stroke="#D4CDBF" stroke-width="1"/><text x="98" y="291.44444444444446" text-anchor="end" font-size="22" fill="#8B867B">0.4</text><line x1="110" y1="186.66666666666669" x2="1040" y2="186.66666666666669" stroke="#D4CDBF" stroke-width="1"/><text x="98" y="193.66666666666669" text-anchor="end" font-size="22" fill="#8B867B">0.6</text><line x1="110" y1="88.88888888888886" x2="1040" y2="88.88888888888886" stroke="#D4CDBF" stroke-width="1"/><text x="98" y="95.88888888888886" text-anchor="end" font-size="22" fill="#8B867B">0.8</text><line x1="110" y1="480" x2="1040" y2="480" stroke="#2C2A27" stroke-width="2"/><line x1="110" y1="40" x2="110" y2="480" stroke="#2C2A27" stroke-width="2"/><line x1="226.25" y1="346.4844444444444" x2="226.25" y2="191.7022222222222" stroke="#6B8E23" stroke-width="3"/><line x1="206.25" y1="346.4844444444444" x2="246.25" y2="346.4844444444444" stroke="#6B8E23" stroke-width="3"/><line x1="206.25" y1="191.7022222222222" x2="246.25" y2="191.7022222222222" stroke="#6B8E23" stroke-width="3"/><circle cx="226.25" cy="273.44444444444446" r="14" fill="#6B8E23"/><text x="248.25" y="280.44444444444446" font-size="26" font-weight="600" fill="#6B8E23" font-family="var(--ff-sans)">0.42</text><text x="226.25" y="516" text-anchor="middle" font-size="26" font-weight="600" fill="#2C2A27" font-family="var(--ff-sans)">1:1</text><text x="226.25" y="542" text-anchor="middle" font-size="22" fill="#8B867B" font-family="var(--ff-sans)">n=3</text><line x1="458.75" y1="332.84444444444443" x2="458.75" y2="129.76" stroke="#6B8E23" stroke-width="3"/><line x1="438.75" y1="332.84444444444443" x2="478.75" y2="332.84444444444443" stroke="#6B8E23" stroke-width="3"/><line x1="438.75" y1="129.76" x2="478.75" y2="129.76" stroke="#6B8E23" stroke-width="3"/><circle cx="458.75" cy="220.2533333333334" r="14" fill="#6B8E23"/><text x="480.75" y="227.2533333333334" font-size="26" font-weight="600" fill="#6B8E23" font-family="var(--ff-sans)">0.53</text><text x="458.75" y="516" text-anchor="middle" font-size="26" font-weight="600" fill="#2C2A27" font-family="var(--ff-sans)">1:10</text><text x="458.75" y="542" text-anchor="middle" font-size="22" fill="#8B867B" font-family="var(--ff-sans)">n=8</text><line x1="691.25" y1="292.6577777777778" x2="691.25" y2="94.07111111111112" stroke="#B84A2E" stroke-width="3"/><line x1="671.25" y1="292.6577777777778" x2="711.25" y2="292.6577777777778" stroke="#B84A2E" stroke-width="3"/><line x1="671.25" y1="94.07111111111112" x2="711.25" y2="94.07111111111112" stroke="#B84A2E" stroke-width="3"/><circle cx="691.25" cy="190.04000000000002" r="14" fill="#B84A2E"/><text x="713.25" y="197.04000000000002" font-size="26" font-weight="600" fill="#B84A2E" font-family="var(--ff-sans)">0.59</text><text x="691.25" y="516" text-anchor="middle" font-size="26" font-weight="600" fill="#2C2A27" font-family="var(--ff-sans)">1:50</text><text x="691.25" y="542" text-anchor="middle" font-size="22" fill="#8B867B" font-family="var(--ff-sans)">n=5</text><line x1="923.75" y1="363.20444444444445" x2="923.75" y2="363.20444444444445" stroke="#8B867B" stroke-width="3"/><line x1="903.75" y1="363.20444444444445" x2="943.75" y2="363.20444444444445" stroke="#8B867B" stroke-width="3"/><line x1="903.75" y1="363.20444444444445" x2="943.75" y2="363.20444444444445" stroke="#8B867B" stroke-width="3"/><circle cx="923.75" cy="363.20444444444445" r="14" fill="#8B867B"/><text x="945.75" y="370.20444444444445" font-size="26" font-weight="600" fill="#8B867B" font-family="var(--ff-sans)">0.24</text><text x="923.75" y="516" text-anchor="middle" font-size="26" font-weight="600" fill="#2C2A27" font-family="var(--ff-sans)">1:100</text><text x="923.75" y="542" text-anchor="middle" font-size="22" fill="#8B867B" font-family="var(--ff-sans)">n=1</text><text transform="rotate(-90 35 260)" x="35" y="260" text-anchor="middle" font-size="24" fill="#5A564F" font-family="var(--ff-sans)">Spearman medio</text></svg>