<svg viewBox="0 0 1100 560" xmlns="http://www.w3.org/2000/svg"><line x1="200" y1="40" x2="200" y2="490" stroke="#D4CDBF" stroke-width="1"/><text x="200" y="518" text-anchor="middle" font-size="22" fill="#8B867B" font-family="var(--ff-sans)">0.0</text><line x1="390" y1="40" x2="390" y2="490" stroke="#D4CDBF" stroke-width="1"/><text x="390" y="518" text-anchor="middle" font-size="22" fill="#8B867B" font-family="var(--ff-sans)">0.2</text><line x1="580" y1="40" x2="580" y2="490" stroke="#D4CDBF" stroke-width="1"/><text x="580" y="518" text-anchor="middle" font-size="22" fill="#8B867B" font-family="var(--ff-sans)">0.4</text><line x1="769.9999999999999" y1="40" x2="769.9999999999999" y2="490" stroke="#D4CDBF" stroke-width="1"/><text x="769.9999999999999" y="518" text-anchor="middle" font-size="22" fill="#8B867B" font-family="var(--ff-sans)">0.6</text><line x1="960" y1="40" x2="960" y2="490" stroke="#D4CDBF" stroke-width="1"/><text x="960" y="518" text-anchor="middle" font-size="22" fill="#8B867B" font-family="var(--ff-sans)">0.8</text><line x1="200" y1="490" x2="960" y2="490" stroke="#2C2A27" stroke-width="2"/><line x1="200" y1="40" x2="200" y2="490" stroke="#2C2A27" stroke-width="2"/><rect x="200" y="62.5" width="327.655" height="67.5" fill="#8A7A5C"/><text x="184" y="104.25" text-anchor="end" font-size="26" font-family="var(--ff-serif)" fill="#2C2A27" font-weight="600">GraphSAGE</text><text x="539.655" y="104.25" font-size="24" fill="#2C2A27" font-family="var(--ff-sans)" font-weight="600">0.345 <tspan fill="#8B867B" font-weight="400">(n=11)</tspan></text><rect x="200" y="175" width="434.34000000000003" height="67.5" fill="#8A7A5C"/><text x="184" y="216.75" text-anchor="end" font-size="26" font-family="var(--ff-serif)" fill="#2C2A27" font-weight="600">TAGCN</text><text x="646.34" y="216.75" font-size="24" fill="#2C2A27" font-family="var(--ff-sans)" font-weight="600">0.457 <tspan fill="#8B867B" font-weight="400">(n=4)</tspan></text><rect x="200" y="287.5" width="459.98999999999995" height="67.5" fill="#8A7A5C"/><text x="184" y="329.25" text-anchor="end" font-size="26" font-family="var(--ff-serif)" fill="#2C2A27" font-weight="600">GCN</text><text x="671.99" y="329.25" font-size="24" fill="#2C2A27" font-family="var(--ff-sans)" font-weight="600">0.484 <tspan fill="#8B867B" font-weight="400">(n=1)</tspan></text><rect x="200" y="400" width="507.67999999999995" height="67.5" fill="#B84A2E"/><text x="184" y="441.75" text-anchor="end" font-size="26" font-family="var(--ff-serif)" fill="#2C2A27" font-weight="600">GAT</text><text x="719.68" y="441.75" font-size="24" fill="#2C2A27" font-family="var(--ff-sans)" font-weight="600">0.534 <tspan fill="#8B867B" font-weight="400">(n=7)</tspan></text><text x="580" y="546" text-anchor="middle" font-size="24" fill="#5A564F" font-family="var(--ff-sans)">Spearman medio</text></svg>