<svg viewBox="0 0 1100 560" xmlns="http://www.w3.org/2000/svg"><line x1="100" y1="490" x2="1020" y2="490" stroke="#D4CDBF" stroke-width="1"/><text x="88" y="497" text-anchor="end" font-size="22" fill="#8B867B">0</text><line x1="100" y1="384.11764705882354" x2="1020" y2="384.11764705882354" stroke="#D4CDBF" stroke-width="1"/><text x="88" y="391.11764705882354" text-anchor="end" font-size="22" fill="#8B867B">4</text><line x1="100" y1="278.2352941176471" x2="1020" y2="278.2352941176471" stroke="#D4CDBF" stroke-width="1"/><text x="88" y="285.2352941176471" text-anchor="end" font-size="22" fill="#8B867B">8</text><line x1="100" y1="172.35294117647055" x2="1020" y2="172.35294117647055" stroke="#D4CDBF" stroke-width="1"/><text x="88" y="179.35294117647055" text-anchor="end" font-size="22" fill="#8B867B">12</text><line x1="100" y1="66.47058823529414" x2="1020" y2="66.47058823529414" stroke="#D4CDBF" stroke-width="1"/><text x="88" y="73.47058823529414" text-anchor="end" font-size="22" fill="#8B867B">16</text><line x1="100" y1="490" x2="1020" y2="490" stroke="#2C2A27" stroke-width="2"/><line x1="100" y1="40" x2="100" y2="490" stroke="#2C2A27" stroke-width="2"/><rect x="882" y="40" width="80" height="450" fill="#B84A2E"/><text x="922" y="26" text-anchor="middle" font-size="28" font-weight="700" fill="#B84A2E" font-family="var(--ff-sans)">17 / 17</text><text x="100" y="518" text-anchor="middle" font-size="22" fill="#8B867B">0.00</text><text x="330" y="518" text-anchor="middle" font-size="22" fill="#8B867B">0.25</text><text x="560" y="518" text-anchor="middle" font-size="22" fill="#8B867B">0.50</text><text x="790" y="518" text-anchor="middle" font-size="22" fill="#8B867B">0.75</text><text x="1020" y="518" text-anchor="middle" font-size="22" fill="#8B867B">1.00</text><text x="560" y="546" text-anchor="middle" font-size="24" fill="#5A564F" font-family="var(--ff-sans)">Jaccard medio</text><text transform="rotate(-90 30 265)" x="30" y="265" text-anchor="middle" font-size="24" fill="#5A564F" font-family="var(--ff-sans)">Configuraciones</text></svg>