<svg viewBox="0 0 1100 620" xmlns="http://www.w3.org/2000/svg"><line x1="120" y1="520" x2="820" y2="520" stroke="#D4CDBF" stroke-width="1" stroke-dasharray="3 4"/><text x="106" y="528" text-anchor="end" font-size="22" fill="#8B867B" font-family="var(--ff-sans)">0.0</text><line x1="120" y1="415.55555555555554" x2="820" y2="415.55555555555554" stroke="#D4CDBF" stroke-width="1" stroke-dasharray="3 4"/><text x="106" y="423.55555555555554" text-anchor="end" font-size="22" fill="#8B867B" font-family="var(--ff-sans)">0.2</text><line x1="120" y1="311.1111111111111" x2="820" y2="311.1111111111111" stroke="#D4CDBF" stroke-width="1" stroke-dasharray="3 4"/><text x="106" y="319.1111111111111" text-anchor="end" font-size="22" fill="#8B867B" font-family="var(--ff-sans)">0.4</text><line x1="120" y1="206.66666666666669" x2="820" y2="206.66666666666669" stroke="#D4CDBF" stroke-width="1" stroke-dasharray="3 4"/><text x="106" y="214.66666666666669" text-anchor="end" font-size="22" fill="#8B867B" font-family="var(--ff-sans)">0.6</text><line x1="120" y1="102.22222222222217" x2="820" y2="102.22222222222217" stroke="#D4CDBF" stroke-width="1" stroke-dasharray="3 4"/><text x="106" y="110.22222222222217" text-anchor="end" font-size="22" fill="#8B867B" font-family="var(--ff-sans)">0.8</text><line x1="120" y1="520" x2="820" y2="520" stroke="#2C2A27" stroke-width="2"/><line x1="120" y1="50" x2="120" y2="520" stroke="#2C2A27" stroke-width="2"/><line x1="207.5" y1="377.38111111111107" x2="207.5" y2="212.04555555555555" stroke="#2C2A27" stroke-width="2"/><line x1="179.5" y1="377.38111111111107" x2="235.5" y2="377.38111111111107" stroke="#2C2A27" stroke-width="2"/><line x1="179.5" y1="212.04555555555555" x2="235.5" y2="212.04555555555555" stroke="#2C2A27" stroke-width="2"/><rect x="162.5" y="212.04555555555555" width="90" height="165.33555555555552" fill="#E58A6E" opacity="0.45" stroke="#B84A2E" stroke-width="2"/><line x1="162.5" y1="308.65666666666664" x2="252.5" y2="308.65666666666664" stroke="#B84A2E" stroke-width="4"/><circle cx="182.5" cy="377.38111111111107" r="6" fill="#2C2A27" opacity="0.55"/><circle cx="194" cy="308.65666666666664" r="6" fill="#2C2A27" opacity="0.55"/><circle cx="205.5" cy="212.04555555555555" r="6" fill="#2C2A27" opacity="0.55"/><text x="207.5" y="554" text-anchor="middle" font-size="24" fill="#2C2A27" font-family="var(--ff-sans)" font-weight="600">1:1</text><text x="207.5" y="578" text-anchor="middle" font-size="18" fill="#8B867B" font-family="var(--ff-sans)">n=3</text><line x1="382.5" y1="362.81111111111113" x2="382.5" y2="145.88" stroke="#2C2A27" stroke-width="2"/><line x1="354.5" y1="362.81111111111113" x2="410.5" y2="362.81111111111113" stroke="#2C2A27" stroke-width="2"/><line x1="354.5" y1="145.88" x2="410.5" y2="145.88" stroke="#2C2A27" stroke-width="2"/><rect x="337.5" y="167.81333333333333" width="90" height="151.52277777777778" fill="#E58A6E" opacity="0.45" stroke="#B84A2E" stroke-width="2"/><line x1="337.5" y1="228.75666666666672" x2="427.5" y2="228.75666666666672" stroke="#B84A2E" stroke-width="4"/><circle cx="357.5" cy="362.81111111111113" r="6" fill="#2C2A27" opacity="0.55"/><circle cx="369" cy="337.9011111111111" r="6" fill="#2C2A27" opacity="0.55"/><circle cx="380.5" cy="300.7711111111111" r="6" fill="#2C2A27" opacity="0.55"/><circle cx="392" cy="267.14" r="6" fill="#2C2A27" opacity="0.55"/><circle cx="403.5" cy="190.3733333333334" r="6" fill="#2C2A27" opacity="0.55"/><circle cx="365" cy="178.41444444444448" r="6" fill="#2C2A27" opacity="0.55"/><circle cx="376.5" cy="157.21222222222224" r="6" fill="#2C2A27" opacity="0.55"/><circle cx="388" cy="145.88" r="6" fill="#2C2A27" opacity="0.55"/><text x="382.5" y="554" text-anchor="middle" font-size="24" fill="#2C2A27" font-family="var(--ff-sans)" font-weight="600">1:10</text><text x="382.5" y="578" text-anchor="middle" font-size="18" fill="#8B867B" font-family="var(--ff-sans)">n=8</text><line x1="557.5" y1="319.88444444444445" x2="557.5" y2="107.75777777777779" stroke="#2C2A27" stroke-width="2"/><line x1="529.5" y1="319.88444444444445" x2="585.5" y2="319.88444444444445" stroke="#2C2A27" stroke-width="2"/><line x1="529.5" y1="107.75777777777779" x2="585.5" y2="107.75777777777779" stroke="#2C2A27" stroke-width="2"/><rect x="512.5" y="109.7161111111111" width="90" height="207.16555555555556" fill="#E58A6E" opacity="0.45" stroke="#B84A2E" stroke-width="2"/><line x1="512.5" y1="198.10222222222228" x2="602.5" y2="198.10222222222228" stroke="#B84A2E" stroke-width="4"/><circle cx="532.5" cy="319.88444444444445" r="6" fill="#2C2A27" opacity="0.55"/><circle cx="544" cy="313.8788888888889" r="6" fill="#2C2A27" opacity="0.55"/><circle cx="555.5" cy="198.10222222222228" r="6" fill="#2C2A27" opacity="0.55"/><circle cx="567" cy="111.67444444444448" r="6" fill="#2C2A27" opacity="0.55"/><circle cx="578.5" cy="107.75777777777779" r="6" fill="#2C2A27" opacity="0.55"/><text x="557.5" y="554" text-anchor="middle" font-size="24" fill="#2C2A27" font-family="var(--ff-sans)" font-weight="600">1:50</text><text x="557.5" y="578" text-anchor="middle" font-size="18" fill="#8B867B" font-family="var(--ff-sans)">n=5</text><line x1="732.5" y1="395.24111111111114" x2="732.5" y2="395.24111111111114" stroke="#2C2A27" stroke-width="2"/><line x1="704.5" y1="395.24111111111114" x2="760.5" y2="395.24111111111114" stroke="#2C2A27" stroke-width="2"/><line x1="704.5" y1="395.24111111111114" x2="760.5" y2="395.24111111111114" stroke="#2C2A27" stroke-width="2"/><circle cx="707.5" cy="395.24111111111114" r="6" fill="#2C2A27" opacity="0.55"/><text x="732.5" y="554" text-anchor="middle" font-size="24" fill="#2C2A27" font-family="var(--ff-sans)" font-weight="600">1:100</text><text x="732.5" y="578" text-anchor="middle" font-size="18" fill="#8B867B" font-family="var(--ff-sans)">n=1</text><rect x="834" y="74" width="250" height="180" fill="#EEE8DE" stroke="#D4CDBF" stroke-width="1.5"/><text x="850" y="100" font-family="var(--ff-sans)" font-size="16" letter-spacing="0.18em" fill="#B84A2E" font-weight="600">KRUSKAL–WALLIS</text><text x="850" y="140" font-family="var(--ff-serif)" font-size="38" font-weight="600" fill="#2C2A27">H = 4.31</text><text x="850" y="180" font-family="var(--ff-serif)" font-size="38" font-weight="600" fill="#2C2A27">p = 0.230</text><text x="850" y="215" font-family="var(--ff-sans)" font-size="18" fill="#5A564F">No significativo (α=0.05)</text><text transform="rotate(-90 34 285)" x="34" y="285" text-anchor="middle" font-size="24" fill="#5A564F" font-family="var(--ff-sans)">Spearman medio</text></svg>