<svg viewBox="0 0 1100 560" xmlns="http://www.w3.org/2000/svg"><line x1="340" y1="40" x2="340" y2="460" stroke="#D4CDBF" stroke-width="1"/><text x="340" y="488" text-anchor="middle" font-size="22" fill="#8B867B">0.00</text><line x1="515" y1="40" x2="515" y2="460" stroke="#D4CDBF" stroke-width="1"/><text x="515" y="488" text-anchor="middle" font-size="22" fill="#8B867B">0.25</text><line x1="690" y1="40" x2="690" y2="460" stroke="#D4CDBF" stroke-width="1"/><text x="690" y="488" text-anchor="middle" font-size="22" fill="#8B867B">0.50</text><line x1="865" y1="40" x2="865" y2="460" stroke="#D4CDBF" stroke-width="1"/><text x="865" y="488" text-anchor="middle" font-size="22" fill="#8B867B">0.75</text><line x1="1040" y1="40" x2="1040" y2="460" stroke="#D4CDBF" stroke-width="1"/><text x="1040" y="488" text-anchor="middle" font-size="22" fill="#8B867B">1.00</text><line x1="340" y1="460" x2="1040" y2="460" stroke="#2C2A27" stroke-width="2"/><line x1="340" y1="40" x2="340" y2="460" stroke="#2C2A27" stroke-width="2"/><rect x="340" y="43.65217391304348" width="338.94" height="4.930434782608695" fill="#B84A2E" opacity=".85"/><rect x="340" y="49.130434782608695" width="3" height="4.930434782608695" fill="#8B867B"/><text x="324" y="57.130434782608695" text-anchor="end" font-size="20" fill="#2C2A27" font-family="var(--ff-mono)">1:10·GCN·cw</text><rect x="340" y="61.913043478260875" width="293.86" height="4.930434782608695" fill="#B84A2E" opacity=".85"/><rect x="340" y="67.3913043478261" width="3" height="4.930434782608695" fill="#8B867B"/><text x="324" y="75.3913043478261" text-anchor="end" font-size="20" fill="#2C2A27" font-family="var(--ff-mono)">1:10·GraphSAGE·cw</text><rect x="340" y="80.17391304347825" width="210.7" height="4.930434782608695" fill="#B84A2E" opacity=".85"/><rect x="340" y="85.65217391304347" width="3" height="4.930434782608695" fill="#8B867B"/><text x="324" y="93.65217391304347" text-anchor="end" font-size="20" fill="#2C2A27" font-family="var(--ff-mono)">1:10·GraphSAGE·fl</text><rect x="340" y="98.43478260869566" width="486.28999999999996" height="4.930434782608695" fill="#B84A2E" opacity=".85"/><rect x="340" y="103.91304347826087" width="3" height="4.930434782608695" fill="#8B867B"/><text x="324" y="111.91304347826087" text-anchor="end" font-size="20" fill="#2C2A27" font-family="var(--ff-mono)">1:10·GraphSAGE·none</text><rect x="340" y="116.69565217391303" width="191.17000000000002" height="4.930434782608695" fill="#B84A2E" opacity=".85"/><rect x="340" y="122.17391304347825" width="3" height="4.930434782608695" fill="#8B867B"/><text x="324" y="130.17391304347825" text-anchor="end" font-size="20" fill="#2C2A27" font-family="var(--ff-mono)">1:1·GraphSAGE·cw</text><rect x="340" y="134.9565217391304" width="412.79" height="4.930434782608695" fill="#B84A2E" opacity=".85"/><rect x="340" y="140.43478260869563" width="3" height="4.930434782608695" fill="#8B867B"/><text x="324" y="148.43478260869563" text-anchor="end" font-size="20" fill="#2C2A27" font-family="var(--ff-mono)">1:1·GraphSAGE·none</text><rect x="340" y="153.2173913043478" width="268.24" height="4.930434782608695" fill="#B84A2E" opacity=".85"/><rect x="340" y="158.69565217391303" width="3" height="4.930434782608695" fill="#8B867B"/><text x="324" y="166.69565217391303" text-anchor="end" font-size="20" fill="#2C2A27" font-family="var(--ff-mono)">1:50·GraphSAGE·cw</text><rect x="340" y="171.47826086956522" width="276.29" height="4.930434782608695" fill="#B84A2E" opacity=".85"/><rect x="340" y="176.95652173913044" width="3" height="4.930434782608695" fill="#8B867B"/><text x="324" y="184.95652173913044" text-anchor="end" font-size="20" fill="#2C2A27" font-family="var(--ff-mono)">1:50·GraphSAGE·fl</text><rect x="340" y="189.7391304347826" width="167.23" height="4.930434782608695" fill="#B84A2E" opacity=".85"/><rect x="340" y="195.2173913043478" width="3" height="4.930434782608695" fill="#8B867B"/><text x="324" y="203.2173913043478" text-anchor="end" font-size="20" fill="#2C2A27" font-family="var(--ff-mono)">1:100·GraphSAGE·cw</text><rect x="340" y="207.99999999999997" width="457.87" height="4.930434782608695" fill="#B84A2E" opacity=".85"/><rect x="340" y="213.4782608695652" width="3" height="4.930434782608695" fill="#8B867B"/><text x="324" y="221.4782608695652" text-anchor="end" font-size="20" fill="#2C2A27" font-family="var(--ff-mono)">1:10·GAT·fl</text><rect x="340" y="226.26086956521738" width="441.84" height="4.930434782608695" fill="#B84A2E" opacity=".85"/><rect x="340" y="231.7391304347826" width="3" height="4.930434782608695" fill="#8B867B"/><text x="324" y="239.7391304347826" text-anchor="end" font-size="20" fill="#2C2A27" font-family="var(--ff-mono)">1:10·TAGCN·fl</text><rect x="340" y="244.52173913043478" width="244.09" height="4.930434782608695" fill="#B84A2E" opacity=".85"/><rect x="340" y="250" width="3" height="4.930434782608695" fill="#8B867B"/><text x="324" y="258" text-anchor="end" font-size="20" fill="#2C2A27" font-family="var(--ff-mono)">1:10·TAGCN·none</text><rect x="340" y="262.7826086956522" width="552.58" height="4.930434782608695" fill="#B84A2E" opacity=".85"/><rect x="340" y="268.2608695652174" width="3" height="4.930434782608695" fill="#8B867B"/><text x="324" y="276.2608695652174" text-anchor="end" font-size="20" fill="#2C2A27" font-family="var(--ff-mono)">1:50·TAGCN·fl</text><rect x="340" y="281.04347826086956" width="501.48" height="4.930434782608695" fill="#B84A2E" opacity=".85"/><rect x="340" y="286.52173913043475" width="3" height="4.930434782608695" fill="#8B867B"/><text x="324" y="294.52173913043475" text-anchor="end" font-size="20" fill="#2C2A27" font-family="var(--ff-mono)">1:10·GAT·none</text><rect x="340" y="299.304347826087" width="283.29" height="4.930434782608695" fill="#B84A2E" opacity=".85"/><rect x="340" y="304.7826086956522" width="3" height="4.930434782608695" fill="#8B867B"/><text x="324" y="312.7826086956522" text-anchor="end" font-size="20" fill="#2C2A27" font-family="var(--ff-mono)">1:1·GAT·cw</text><rect x="340" y="317.5652173913044" width="431.47999999999996" height="4.930434782608695" fill="#B84A2E" opacity=".85"/><rect x="340" y="323.04347826086956" width="3" height="4.930434782608695" fill="#8B867B"/><text x="324" y="331.04347826086956" text-anchor="end" font-size="20" fill="#2C2A27" font-family="var(--ff-mono)">1:50·GAT·cw</text><rect x="340" y="335.82608695652175" width="547.33" height="4.930434782608695" fill="#B84A2E" opacity=".85"/><rect x="340" y="341.30434782608694" width="3" height="4.930434782608695" fill="#8B867B"/><text x="324" y="349.30434782608694" text-anchor="end" font-size="20" fill="#2C2A27" font-family="var(--ff-mono)">1:50·GAT·fl</text><rect x="340" y="354.0869565217391" width="193.13" height="4.930434782608695" fill="#B84A2E" opacity=".85"/><rect x="340" y="359.5652173913043" width="3" height="4.930434782608695" fill="#8B867B"/><text x="324" y="367.5652173913043" text-anchor="end" font-size="20" fill="#2C2A27" font-family="var(--ff-mono)">1:30·GAT·fl (nativo)</text><rect x="340" y="372.3478260869565" width="203.84" height="4.930434782608695" fill="#B84A2E" opacity=".85"/><rect x="340" y="377.8260869565217" width="3" height="4.930434782608695" fill="#8B867B"/><text x="324" y="385.8260869565217" text-anchor="end" font-size="20" fill="#2C2A27" font-family="var(--ff-mono)">1:30·GAT·none (nativo)</text><rect x="340" y="390.60869565217394" width="84.63" height="4.930434782608695" fill="#B84A2E" opacity=".85"/><rect x="340" y="396.0869565217391" width="3" height="4.930434782608695" fill="#8B867B"/><text x="324" y="404.0869565217391" text-anchor="end" font-size="20" fill="#2C2A27" font-family="var(--ff-mono)">1:30·GraphSAGE·cw (nativo)</text><rect x="340" y="408.8695652173913" width="10.780000000000001" height="4.930434782608695" fill="#B84A2E" opacity=".85"/><rect x="340" y="414.3478260869565" width="3" height="4.930434782608695" fill="#8B867B"/><text x="324" y="422.3478260869565" text-anchor="end" font-size="20" fill="#2C2A27" font-family="var(--ff-mono)">1:30·GraphSAGE·fl (nativo)</text><rect x="340" y="427.1304347826087" width="253.68" height="4.930434782608695" fill="#B84A2E" opacity=".85"/><rect x="340" y="432.6086956521739" width="3" height="4.930434782608695" fill="#8B867B"/><text x="324" y="440.6086956521739" text-anchor="end" font-size="20" fill="#2C2A27" font-family="var(--ff-mono)">1:30·GraphSAGE·none (nat.)</text><rect x="340" y="445.3913043478261" width="41.65" height="4.930434782608695" fill="#B84A2E" opacity=".85"/><rect x="340" y="450.8695652173913" width="3" height="4.930434782608695" fill="#8B867B"/><text x="324" y="458.8695652173913" text-anchor="end" font-size="20" fill="#2C2A27" font-family="var(--ff-mono)">1:30·TAGCN·fl (nativo)</text><g font-family="var(--ff-sans)" font-size="24" font-weight="600">
    <rect x="510" y="520" width="22" height="14" fill="#B84A2E"/>
    <text x="540" y="532" fill="#2C2A27">GNNExplainer</text>
    <rect x="740" y="520" width="22" height="14" fill="#8B867B"/>
    <text x="770" y="532" fill="#2C2A27">PGExplainer (≡ 0)</text>
  </g></svg>