<svg viewBox="0 0 1100 560" xmlns="http://www.w3.org/2000/svg"><line x1="261.66666666666663" y1="40" x2="261.66666666666663" y2="480" stroke="#D4CDBF" stroke-width="1"/><text x="261.66666666666663" y="510" text-anchor="middle" font-size="22" fill="#8B867B">0.3</text><line x1="565" y1="40" x2="565" y2="480" stroke="#D4CDBF" stroke-width="1"/><text x="565" y="510" text-anchor="middle" font-size="22" fill="#8B867B">0.4</text><line x1="868.3333333333333" y1="40" x2="868.3333333333333" y2="480" stroke="#D4CDBF" stroke-width="1"/><text x="868.3333333333333" y="510" text-anchor="middle" font-size="22" fill="#8B867B">0.5</text><line x1="110" y1="333.33333333333326" x2="1020" y2="333.33333333333326" stroke="#D4CDBF" stroke-width="1"/><text x="98" y="340.33333333333326" text-anchor="end" font-size="22" fill="#8B867B">0.4</text><line x1="110" y1="235.55555555555554" x2="1020" y2="235.55555555555554" stroke="#D4CDBF" stroke-width="1"/><text x="98" y="242.55555555555554" text-anchor="end" font-size="22" fill="#8B867B">0.5</text><line x1="110" y1="137.77777777777777" x2="1020" y2="137.77777777777777" stroke="#D4CDBF" stroke-width="1"/><text x="98" y="144.77777777777777" text-anchor="end" font-size="22" fill="#8B867B">0.6</text><line x1="110" y1="40" x2="1020" y2="40" stroke="#D4CDBF" stroke-width="1"/><text x="98" y="47" text-anchor="end" font-size="22" fill="#8B867B">0.7</text><line x1="565" y1="40" x2="565" y2="480" stroke="#B84A2E" stroke-width="2" stroke-dasharray="6 8" opacity=".5"/><line x1="110" y1="284.4444444444444" x2="1020" y2="284.4444444444444" stroke="#B84A2E" stroke-width="2" stroke-dasharray="6 8" opacity=".5"/><line x1="110" y1="480" x2="1020" y2="480" stroke="#2C2A27" stroke-width="2"/><line x1="110" y1="40" x2="110" y2="480" stroke="#2C2A27" stroke-width="2"/><text x="585" y="64" font-size="22" fill="#8B867B" font-family="var(--ff-sans)" font-style="italic">Ideal — auditable + preciso</text><text x="130" y="64" font-size="22" fill="#8B867B" font-family="var(--ff-sans)" font-style="italic">Auditable pero impreciso</text><text x="585" y="464" font-size="22" fill="#8B867B" font-family="var(--ff-sans)" font-style="italic">Preciso pero opaco</text><text x="130" y="464" font-size="22" fill="#8B867B" font-family="var(--ff-sans)" font-style="italic">Evitar</text><circle cx="306.56000000000006" cy="251.00444444444443" r="16" fill="#2C2A27" opacity=".85"/><text x="328.56000000000006" y="260.0044444444444" font-size="26" font-weight="700" fill="#2C2A27" font-family="var(--ff-serif)">GCN</text><circle cx="750.6399999999999" cy="387.2088888888889" r="16" fill="#2C2A27" opacity=".85"/><text x="772.6399999999999" y="396.2088888888889" font-size="26" font-weight="700" fill="#2C2A27" font-family="var(--ff-serif)">GraphSAGE</text><circle cx="420.00666666666666" cy="201.92000000000002" r="16" fill="#B84A2E" opacity=".85"/><text x="442.00666666666666" y="210.92000000000002" font-size="26" font-weight="700" fill="#B84A2E" font-family="var(--ff-serif)">GAT</text><circle cx="432.44333333333327" cy="277.40444444444444" r="16" fill="#2C2A27" opacity=".85"/><text x="454.44333333333327" y="286.40444444444444" font-size="26" font-weight="700" fill="#2C2A27" font-family="var(--ff-serif)">TAGCN</text><text x="565" y="546" text-anchor="middle" font-size="24" fill="#5A564F" font-family="var(--ff-sans)">F1 de validación (medio)</text><text transform="rotate(-90 35 260)" x="35" y="260" text-anchor="middle" font-size="24" fill="#5A564F" font-family="var(--ff-sans)">Spearman (medio)</text></svg>