<svg viewBox="0 0 1100 560" xmlns="http://www.w3.org/2000/svg"><line x1="90" y1="480" x2="900" y2="480" stroke="#D4CDBF" stroke-width="1"/><text x="78" y="488" text-anchor="end" font-size="24" fill="#8B867B" font-family="var(--ff-sans)">0.0</text><line x1="90" y1="370" x2="900" y2="370" stroke="#D4CDBF" stroke-width="1"/><text x="78" y="378" text-anchor="end" font-size="24" fill="#8B867B" font-family="var(--ff-sans)">0.2</text><line x1="90" y1="260" x2="900" y2="260" stroke="#D4CDBF" stroke-width="1"/><text x="78" y="268" text-anchor="end" font-size="24" fill="#8B867B" font-family="var(--ff-sans)">0.4</text><line x1="90" y1="150.00000000000006" x2="900" y2="150.00000000000006" stroke="#D4CDBF" stroke-width="1"/><text x="78" y="158.00000000000006" text-anchor="end" font-size="24" fill="#8B867B" font-family="var(--ff-sans)">0.6</text><line x1="90" y1="40" x2="900" y2="40" stroke="#D4CDBF" stroke-width="1"/><text x="78" y="48" text-anchor="end" font-size="24" fill="#8B867B" font-family="var(--ff-sans)">0.8</text><text x="90" y="516" text-anchor="middle" font-size="26" fill="#2C2A27" font-family="var(--ff-sans)" font-weight="600">1:1</text><text x="360" y="516" text-anchor="middle" font-size="26" fill="#2C2A27" font-family="var(--ff-sans)" font-weight="600">1:10</text><text x="630" y="516" text-anchor="middle" font-size="26" fill="#2C2A27" font-family="var(--ff-sans)" font-weight="600">1:50</text><text x="900" y="516" text-anchor="middle" font-size="26" fill="#2C2A27" font-family="var(--ff-sans)" font-weight="600">1:100</text><line x1="90" y1="480" x2="900" y2="480" stroke="#2C2A27" stroke-width="2"/><line x1="90" y1="40" x2="90" y2="480" stroke="#2C2A27" stroke-width="2"/><polyline points="90,247.62500000000003 360,187.78500000000003 630,153.79500000000007 900,348.605" fill="none" stroke="#B84A2E" stroke-width="4" stroke-linecap="round" stroke-linejoin="round"/><circle cx="90" cy="247.62500000000003" r="8" fill="#B84A2E"/><circle cx="360" cy="187.78500000000003" r="8" fill="#B84A2E"/><circle cx="630" cy="153.79500000000007" r="8" fill="#B84A2E"/><circle cx="900" cy="348.605" r="8" fill="#B84A2E"/><text x="916" y="355.605" font-size="24" fill="#B84A2E" font-family="var(--ff-sans)" font-weight="600">GNNExplainer</text><polyline points="90,425 360,390.68 630,414.495 900,296.685" fill="none" stroke="#6B8E23" stroke-width="4" stroke-linecap="round" stroke-linejoin="round"/><circle cx="90" cy="425" r="8" fill="#6B8E23"/><circle cx="360" cy="390.68" r="8" fill="#6B8E23"/><circle cx="630" cy="414.495" r="8" fill="#6B8E23"/><circle cx="900" cy="296.685" r="8" fill="#6B8E23"/><text x="916" y="303.685" font-size="24" fill="#6B8E23" font-family="var(--ff-sans)" font-weight="600">GNNShap</text><polyline points="90,480 360,480 630,480 900,480" fill="none" stroke="#8A7A5C" stroke-width="4" stroke-linecap="round" stroke-linejoin="round"/><circle cx="90" cy="480" r="8" fill="#8A7A5C"/><circle cx="360" cy="480" r="8" fill="#8A7A5C"/><circle cx="630" cy="480" r="8" fill="#8A7A5C"/><circle cx="900" cy="480" r="8" fill="#8A7A5C"/><text x="916" y="487" font-size="24" fill="#8A7A5C" font-family="var(--ff-sans)" font-weight="600">PGExplainer</text><text transform="rotate(-90 30 260)" x="30" y="260" text-anchor="middle" font-size="24" fill="#5A564F" font-family="var(--ff-sans)">Spearman medio</text></svg>