<svg viewBox="0 0 1100 560" xmlns="http://www.w3.org/2000/svg"><line x1="360" y1="40" x2="360" y2="490" stroke="#D4CDBF" stroke-width="1"/><text x="360" y="518" text-anchor="middle" font-size="22" fill="#8B867B">0</text><line x1="468.84353741496597" y1="40" x2="468.84353741496597" y2="490" stroke="#D4CDBF" stroke-width="1"/><text x="468.84353741496597" y="518" text-anchor="middle" font-size="22" fill="#8B867B">5</text><line x1="577.6870748299319" y1="40" x2="577.6870748299319" y2="490" stroke="#D4CDBF" stroke-width="1"/><text x="577.6870748299319" y="518" text-anchor="middle" font-size="22" fill="#8B867B">10</text><line x1="686.530612244898" y1="40" x2="686.530612244898" y2="490" stroke="#D4CDBF" stroke-width="1"/><text x="686.530612244898" y="518" text-anchor="middle" font-size="22" fill="#8B867B">15</text><line x1="795.3741496598639" y1="40" x2="795.3741496598639" y2="490" stroke="#D4CDBF" stroke-width="1"/><text x="795.3741496598639" y="518" text-anchor="middle" font-size="22" fill="#8B867B">20</text><line x1="904.21768707483" y1="40" x2="904.21768707483" y2="490" stroke="#D4CDBF" stroke-width="1"/><text x="904.21768707483" y="518" text-anchor="middle" font-size="22" fill="#8B867B">25</text><line x1="1013.0612244897959" y1="40" x2="1013.0612244897959" y2="490" stroke="#D4CDBF" stroke-width="1"/><text x="1013.0612244897959" y="518" text-anchor="middle" font-size="22" fill="#8B867B">30</text><line x1="360" y1="490" x2="1000" y2="490" stroke="#2C2A27" stroke-width="2"/><line x1="360" y1="40" x2="360" y2="490" stroke="#2C2A27" stroke-width="2"/><rect x="360" y="96.25" width="67.91836734693878" height="112.5" fill="#6B8E23"/><rect x="427.9183673469388" y="96.25" width="33.30612244897959" height="112.5" fill="#B84A2E"/><text x="344" y="160.5" text-anchor="end" font-size="24" fill="#2C2A27" font-family="var(--ff-sans)" font-weight="600">Máquina B · RTX 4060</text><text x="471.2244897959184" y="160.5" font-size="24" fill="#2C2A27" font-family="var(--ff-mono)" font-weight="600">4.7 h</text><rect x="360" y="321.25" width="117.55102040816327" height="112.5" fill="#6B8E23"/><rect x="477.55102040816325" y="321.25" width="522.4489795918367" height="112.5" fill="#B84A2E"/><text x="344" y="385.5" text-anchor="end" font-size="24" fill="#2C2A27" font-family="var(--ff-sans)" font-weight="600">Máquina C · RTX 3050</text><text x="1010" y="385.5" font-size="24" fill="#2C2A27" font-family="var(--ff-mono)" font-weight="600">29.4 h</text><text x="418.7755102040816" y="385.5" text-anchor="middle" font-size="22" fill="#fff" font-weight="600">train 5.4</text><text x="738.7755102040817" y="385.5" text-anchor="middle" font-size="22" fill="#fff" font-weight="600">XAI 24.0</text><text x="680" y="546" text-anchor="middle" font-size="24" fill="#5A564F" font-family="var(--ff-sans)">horas-GPU</text></svg>