<svg viewBox="0 0 1100 560" xmlns="http://www.w3.org/2000/svg"><line x1="460" y1="40" x2="460" y2="490" stroke="#D4CDBF" stroke-width="1"/><text x="460" y="518" text-anchor="middle" font-size="22" fill="#8B867B">0.00</text><line x1="600" y1="40" x2="600" y2="490" stroke="#D4CDBF" stroke-width="1"/><text x="600" y="518" text-anchor="middle" font-size="22" fill="#8B867B">0.25</text><line x1="740" y1="40" x2="740" y2="490" stroke="#D4CDBF" stroke-width="1"/><text x="740" y="518" text-anchor="middle" font-size="22" fill="#8B867B">0.50</text><line x1="880" y1="40" x2="880" y2="490" stroke="#D4CDBF" stroke-width="1"/><text x="880" y="518" text-anchor="middle" font-size="22" fill="#8B867B">0.75</text><line x1="1020" y1="40" x2="1020" y2="490" stroke="#D4CDBF" stroke-width="1"/><text x="1020" y="518" text-anchor="middle" font-size="22" fill="#8B867B">1.00</text><line x1="460" y1="490" x2="1020" y2="490" stroke="#2C2A27" stroke-width="2"/><line x1="460" y1="40" x2="460" y2="490" stroke="#2C2A27" stroke-width="2"/><rect x="460" y="51.25" width="520.8000000000001" height="27.500000000000004" fill="#8A7A5C"/><text x="444" y="73" text-anchor="end" font-size="22" fill="#2C2A27" font-family="var(--ff-sans)" font-weight="600">Bellei 2024 — Elliptic2 SAGE+GAT (test)</text><text x="990.8000000000001" y="73" font-size="24" fill="#2C2A27" font-family="var(--ff-mono)" font-weight="600">0.93</text><rect x="460" y="101.25" width="498.40000000000003" height="27.500000000000004" fill="#8A7A5C"/><text x="444" y="123" text-anchor="end" font-size="22" fill="#2C2A27" font-family="var(--ff-sans)" font-weight="600">Pareja 2020 — EvolveGCN (test)</text><text x="968.4000000000001" y="123" font-size="24" fill="#2C2A27" font-family="var(--ff-mono)" font-weight="600">0.89</text><rect x="460" y="151.25" width="476" height="27.500000000000004" fill="#8A7A5C"/><text x="444" y="173" text-anchor="end" font-size="22" fill="#2C2A27" font-family="var(--ff-sans)" font-weight="600">arXiv 2025 — GraphSAGE+GraphNorm (val)</text><text x="946" y="173" font-size="24" fill="#2C2A27" font-family="var(--ff-mono)" font-weight="600">0.85</text><rect x="460" y="201.25" width="442.40000000000003" height="27.500000000000004" fill="#8A7A5C"/><text x="444" y="223" text-anchor="end" font-size="22" fill="#2C2A27" font-family="var(--ff-sans)" font-weight="600">Weber 2019 — RandomForest (test)</text><text x="912.4000000000001" y="223" font-size="24" fill="#2C2A27" font-family="var(--ff-mono)" font-weight="600">0.79</text><rect x="460" y="251.25" width="352.8" height="27.500000000000004" fill="#8A7A5C"/><text x="444" y="273" text-anchor="end" font-size="22" fill="#2C2A27" font-family="var(--ff-sans)" font-weight="600">Weber 2019 — GCN (test)</text><text x="822.8" y="273" font-size="24" fill="#2C2A27" font-family="var(--ff-mono)" font-weight="600">0.63</text><rect x="460" y="301.25" width="296.8" height="27.500000000000004" fill="#B84A2E"/><text x="444" y="323" text-anchor="end" font-size="22" fill="#2C2A27" font-family="var(--ff-sans)" font-weight="600">Ours — GraphSAGE nativo (val)</text><text x="766.8" y="323" font-size="24" fill="#2C2A27" font-family="var(--ff-mono)" font-weight="600">0.53</text><rect x="460" y="351.25" width="240.79999999999998" height="27.500000000000004" fill="#E58A6E"/><text x="444" y="373" text-anchor="end" font-size="22" fill="#2C2A27" font-family="var(--ff-sans)" font-weight="600">Ours — TAGCN nativo (val)</text><text x="710.8" y="373" font-size="24" fill="#2C2A27" font-family="var(--ff-mono)" font-weight="600">0.43</text><rect x="460" y="401.25" width="179.20000000000002" height="27.500000000000004" fill="#E58A6E"/><text x="444" y="423" text-anchor="end" font-size="22" fill="#2C2A27" font-family="var(--ff-sans)" font-weight="600">Ours — GAT nativo (val)</text><text x="649.2" y="423" font-size="24" fill="#2C2A27" font-family="var(--ff-mono)" font-weight="600">0.32</text><rect x="460" y="451.25" width="117.6" height="27.500000000000004" fill="#E58A6E"/><text x="444" y="473" text-anchor="end" font-size="22" fill="#2C2A27" font-family="var(--ff-sans)" font-weight="600">Ours — GCN nativo (val)</text><text x="587.6" y="473" font-size="24" fill="#2C2A27" font-family="var(--ff-mono)" font-weight="600">0.21</text><text x="740" y="546" text-anchor="middle" font-size="24" fill="#5A564F" font-family="var(--ff-sans)">F1</text></svg>