<svg viewBox="0 0 1100 560" xmlns="http://www.w3.org/2000/svg"><line class="g" x1="200" y1="40" x2="200" y2="490" stroke="#D4CDBF" stroke-width="1"/><text x="200" y="518" text-anchor="middle" font-size="22" fill="#8B867B" font-family="var(--ff-sans)">0%</text><line class="g" x1="375" y1="40" x2="375" y2="490" stroke="#D4CDBF" stroke-width="1"/><text x="375" y="518" text-anchor="middle" font-size="22" fill="#8B867B" font-family="var(--ff-sans)">25%</text><line class="g" x1="550" y1="40" x2="550" y2="490" stroke="#D4CDBF" stroke-width="1"/><text x="550" y="518" text-anchor="middle" font-size="22" fill="#8B867B" font-family="var(--ff-sans)">50%</text><line class="g" x1="725" y1="40" x2="725" y2="490" stroke="#D4CDBF" stroke-width="1"/><text x="725" y="518" text-anchor="middle" font-size="22" fill="#8B867B" font-family="var(--ff-sans)">75%</text><line class="g" x1="900" y1="40" x2="900" y2="490" stroke="#D4CDBF" stroke-width="1"/><text x="900" y="518" text-anchor="middle" font-size="22" fill="#8B867B" font-family="var(--ff-sans)">100%</text><line x1="200" y1="490" x2="900" y2="490" stroke="#2C2A27" stroke-width="2"/><line x1="200" y1="40" x2="200" y2="490" stroke="#2C2A27" stroke-width="2"/><rect x="200" y="62.5" width="175" height="67.5" fill="#8A7A5C"/><text x="184" y="104.25" text-anchor="end" font-size="26" font-family="var(--ff-serif)" fill="#2C2A27" font-weight="600">1:1</text><text x="387" y="104.25" font-size="24" fill="#2C2A27" font-family="var(--ff-sans)" font-weight="600">25%<tspan fill="#8B867B" font-weight="400"> (3/12)</tspan></text><rect x="200" y="175" width="466.69" height="67.5" fill="#B84A2E"/><text x="184" y="216.75" text-anchor="end" font-size="26" font-family="var(--ff-serif)" fill="#2C2A27" font-weight="600">1:10</text><text x="678.69" y="216.75" font-size="24" fill="#2C2A27" font-family="var(--ff-sans)" font-weight="600">67%<tspan fill="#8B867B" font-weight="400"> (8/12)</tspan></text><rect x="200" y="287.5" width="291.69" height="67.5" fill="#8A7A5C"/><text x="184" y="329.25" text-anchor="end" font-size="26" font-family="var(--ff-serif)" fill="#2C2A27" font-weight="600">1:50</text><text x="503.69" y="329.25" font-size="24" fill="#2C2A27" font-family="var(--ff-sans)" font-weight="600">42%<tspan fill="#8B867B" font-weight="400"> (5/12)</tspan></text><rect x="200" y="400" width="58.31" height="67.5" fill="#8B867B"/><text x="184" y="441.75" text-anchor="end" font-size="26" font-family="var(--ff-serif)" fill="#2C2A27" font-weight="600">1:100</text><text x="270.31" y="441.75" font-size="24" fill="#2C2A27" font-family="var(--ff-sans)" font-weight="600">8%<tspan fill="#8B867B" font-weight="400"> (1/12)</tspan></text><text x="550" y="546" text-anchor="middle" font-size="24" fill="#5A564F" font-family="var(--ff-sans)">Tasa de aprobación</text></svg>