<svg viewBox="0 0 1100 560" xmlns="http://www.w3.org/2000/svg"><line class="g" x1="200" y1="40" x2="200" y2="490" stroke="#D4CDBF" stroke-width="1"/><text x="200" y="518" text-anchor="middle" font-size="22" fill="#8B867B" font-family="var(--ff-sans)">0%</text><line class="g" x1="375" y1="40" x2="375" y2="490" stroke="#D4CDBF" stroke-width="1"/><text x="375" y="518" text-anchor="middle" font-size="22" fill="#8B867B" font-family="var(--ff-sans)">25%</text><line class="g" x1="550" y1="40" x2="550" y2="490" stroke="#D4CDBF" stroke-width="1"/><text x="550" y="518" text-anchor="middle" font-size="22" fill="#8B867B" font-family="var(--ff-sans)">50%</text><line class="g" x1="725" y1="40" x2="725" y2="490" stroke="#D4CDBF" stroke-width="1"/><text x="725" y="518" text-anchor="middle" font-size="22" fill="#8B867B" font-family="var(--ff-sans)">75%</text><line class="g" x1="900" y1="40" x2="900" y2="490" stroke="#D4CDBF" stroke-width="1"/><text x="900" y="518" text-anchor="middle" font-size="22" fill="#8B867B" font-family="var(--ff-sans)">100%</text><line x1="200" y1="490" x2="900" y2="490" stroke="#2C2A27" stroke-width="2"/><line x1="200" y1="40" x2="200" y2="490" stroke="#2C2A27" stroke-width="2"/><rect x="200" y="70" width="210" height="90" fill="#8A7A5C"/><text x="184" y="123" text-anchor="end" font-size="26" font-family="var(--ff-serif)" fill="#2C2A27" font-weight="600">Sin balanceo</text><text x="422" y="123" font-size="24" fill="#2C2A27" font-family="var(--ff-sans)" font-weight="600">30%<tspan fill="#8B867B" font-weight="400"> (6/20)</tspan></text><rect x="200" y="220" width="280" height="90" fill="#8A7A5C"/><text x="184" y="273" text-anchor="end" font-size="26" font-family="var(--ff-serif)" fill="#2C2A27" font-weight="600">Class weighting</text><text x="492" y="273" font-size="24" fill="#2C2A27" font-family="var(--ff-sans)" font-weight="600">40%<tspan fill="#8B867B" font-weight="400"> (8/20)</tspan></text><rect x="200" y="370" width="315" height="90" fill="#B84A2E"/><text x="184" y="423" text-anchor="end" font-size="26" font-family="var(--ff-serif)" fill="#2C2A27" font-weight="600">Focal loss</text><text x="527" y="423" font-size="24" fill="#2C2A27" font-family="var(--ff-sans)" font-weight="600">45%<tspan fill="#8B867B" font-weight="400"> (9/20)</tspan></text><text x="550" y="546" text-anchor="middle" font-size="24" fill="#5A564F" font-family="var(--ff-sans)">Tasa de aprobación</text></svg>