<svg viewBox="0 0 1280 920" xmlns="http://www.w3.org/2000/svg"><text x="50" y="50" font-size="18" letter-spacing="0.14em" fill="#B84A2E" font-family="var(--ff-sans)" font-weight="600">ESCENARIO</text><text x="220" y="50" font-size="18" letter-spacing="0.14em" fill="#B84A2E" font-family="var(--ff-sans)" font-weight="600">ARQUIT.</text><text x="340" y="50" font-size="18" letter-spacing="0.14em" fill="#B84A2E" font-family="var(--ff-sans)" font-weight="600">BALANCEO</text><text x="480" y="50" font-size="18" letter-spacing="0.14em" fill="#B84A2E" font-family="var(--ff-sans)" font-weight="600">F1 VAL</text><text x="670" y="50" font-size="18" letter-spacing="0.14em" fill="#B84A2E" font-family="var(--ff-sans)" font-weight="600">MCC</text><text x="860" y="50" font-size="18" letter-spacing="0.14em" fill="#B84A2E" font-family="var(--ff-sans)" font-weight="600">SPEARMAN (GNNExp.)</text><line x1="30" y1="62" x2="1250" y2="62" stroke="#2C2A27" stroke-width="2"/><rect x="30" y="56" width="1220" height="32" fill="#F4E9D1"/><text x="50" y="82" font-family="var(--ff-mono)" font-size="18" fill="#2C2A27">1:50</text><text x="220" y="82" font-family="var(--ff-sans)" font-size="20" fill="#2C2A27" font-weight="600">TAGCN</text><text x="340" y="82" font-family="var(--ff-sans)" font-size="18" fill="#5A564F">focal loss</text><rect x="480" y="64" width="84.46363636363634" height="22" fill="#8A7A5C" opacity="0.55"/><text x="572.4636363636364" y="82" font-family="var(--ff-mono)" font-size="18" fill="#2C2A27">0.310</text><rect x="670" y="64" width="81.02727272727272" height="22" fill="#6B8E23" opacity="0.55"/><text x="759.0272727272727" y="82" font-family="var(--ff-mono)" font-size="18" fill="#2C2A27">0.297</text><rect x="860" y="64" width="250.75058823529412" height="22" fill="#B84A2E" opacity="0.8"/><text x="1118.7505882352941" y="82" font-family="var(--ff-mono)" font-size="18" fill="#2C2A27" font-weight="600">0.789</text><line x1="30" y1="88" x2="1250" y2="88" stroke="#D4CDBF" stroke-width="0.8" opacity="0.6"/><rect x="30" y="88" width="1220" height="32" fill="#F4E9D1"/><text x="50" y="114" font-family="var(--ff-mono)" font-size="18" fill="#2C2A27">1:50</text><text x="220" y="114" font-family="var(--ff-sans)" font-size="20" fill="#2C2A27" font-weight="600">GAT</text><text x="340" y="114" font-family="var(--ff-sans)" font-size="18" fill="#5A564F">focal loss</text><rect x="480" y="96" width="114.5181818181818" height="22" fill="#8A7A5C" opacity="0.55"/><text x="602.5181818181818" y="114" font-family="var(--ff-mono)" font-size="18" fill="#2C2A27">0.420</text><rect x="670" y="96" width="109.25454545454545" height="22" fill="#6B8E23" opacity="0.55"/><text x="787.2545454545455" y="114" font-family="var(--ff-mono)" font-size="18" fill="#2C2A27">0.401</text><rect x="860" y="96" width="248.36823529411768" height="22" fill="#B84A2E" opacity="0.8"/><text x="1116.3682352941178" y="114" font-family="var(--ff-mono)" font-size="18" fill="#2C2A27" font-weight="600">0.782</text><line x1="30" y1="120" x2="1250" y2="120" stroke="#D4CDBF" stroke-width="0.8" opacity="0.6"/><text x="50" y="146" font-family="var(--ff-mono)" font-size="18" fill="#2C2A27">1:10</text><text x="220" y="146" font-family="var(--ff-sans)" font-size="20" fill="#2C2A27" font-weight="600">GAT</text><text x="340" y="146" font-family="var(--ff-sans)" font-size="18" fill="#5A564F">sin balanceo</text><rect x="480" y="128" width="125.31818181818181" height="22" fill="#8A7A5C" opacity="0.55"/><text x="613.3181818181818" y="146" font-family="var(--ff-mono)" font-size="18" fill="#2C2A27">0.460</text><rect x="670" y="128" width="120.98181818181817" height="22" fill="#6B8E23" opacity="0.55"/><text x="798.9818181818182" y="146" font-family="var(--ff-mono)" font-size="18" fill="#2C2A27">0.444</text><rect x="860" y="128" width="227.56235294117647" height="22" fill="#B84A2E" opacity="0.8"/><text x="1095.5623529411764" y="146" font-family="var(--ff-mono)" font-size="18" fill="#2C2A27" font-weight="600">0.716</text><line x1="30" y1="152" x2="1250" y2="152" stroke="#D4CDBF" stroke-width="0.8" opacity="0.6"/><text x="50" y="178" font-family="var(--ff-mono)" font-size="18" fill="#2C2A27">1:10</text><text x="220" y="178" font-family="var(--ff-sans)" font-size="20" fill="#2C2A27" font-weight="600">GraphSAGE</text><text x="340" y="178" font-family="var(--ff-sans)" font-size="18" fill="#5A564F">sin balanceo</text><rect x="480" y="160" width="128.56363636363636" height="22" fill="#8A7A5C" opacity="0.55"/><text x="616.5636363636363" y="178" font-family="var(--ff-mono)" font-size="18" fill="#2C2A27">0.471</text><rect x="670" y="160" width="123.76363636363635" height="22" fill="#6B8E23" opacity="0.55"/><text x="801.7636363636364" y="178" font-family="var(--ff-mono)" font-size="18" fill="#2C2A27">0.454</text><rect x="860" y="160" width="220.6694117647059" height="22" fill="#B84A2E" opacity="0.8"/><text x="1088.669411764706" y="178" font-family="var(--ff-mono)" font-size="18" fill="#2C2A27" font-weight="600">0.695</text><line x1="30" y1="184" x2="1250" y2="184" stroke="#D4CDBF" stroke-width="0.8" opacity="0.6"/><text x="50" y="210" font-family="var(--ff-mono)" font-size="18" fill="#2C2A27">1:10</text><text x="220" y="210" font-family="var(--ff-sans)" font-size="20" fill="#2C2A27" font-weight="600">GAT</text><text x="340" y="210" font-family="var(--ff-sans)" font-size="18" fill="#5A564F">focal loss</text><rect x="480" y="192" width="88.93636363636362" height="22" fill="#8A7A5C" opacity="0.55"/><text x="576.9363636363636" y="210" font-family="var(--ff-mono)" font-size="18" fill="#2C2A27">0.326</text><rect x="670" y="192" width="87.40909090909089" height="22" fill="#6B8E23" opacity="0.55"/><text x="765.4090909090909" y="210" font-family="var(--ff-mono)" font-size="18" fill="#2C2A27">0.321</text><rect x="860" y="192" width="207.7729411764706" height="22" fill="#B84A2E" opacity="0.8"/><text x="1075.7729411764706" y="210" font-family="var(--ff-mono)" font-size="18" fill="#2C2A27" font-weight="600">0.654</text><line x1="30" y1="216" x2="1250" y2="216" stroke="#D4CDBF" stroke-width="0.8" opacity="0.6"/><text x="50" y="242" font-family="var(--ff-mono)" font-size="18" fill="#2C2A27">1:10</text><text x="220" y="242" font-family="var(--ff-sans)" font-size="20" fill="#2C2A27" font-weight="600">TAGCN</text><text x="340" y="242" font-family="var(--ff-sans)" font-size="18" fill="#5A564F">focal loss</text><rect x="480" y="224" width="83.9181818181818" height="22" fill="#8A7A5C" opacity="0.55"/><text x="571.9181818181818" y="242" font-family="var(--ff-mono)" font-size="18" fill="#2C2A27">0.308</text><rect x="670" y="224" width="80.59090909090908" height="22" fill="#6B8E23" opacity="0.55"/><text x="758.5909090909091" y="242" font-family="var(--ff-mono)" font-size="18" fill="#2C2A27">0.295</text><rect x="860" y="224" width="200.49882352941177" height="22" fill="#B84A2E" opacity="0.8"/><text x="1068.4988235294118" y="242" font-family="var(--ff-mono)" font-size="18" fill="#2C2A27" font-weight="600">0.631</text><line x1="30" y1="248" x2="1250" y2="248" stroke="#D4CDBF" stroke-width="0.8" opacity="0.6"/><text x="50" y="274" font-family="var(--ff-mono)" font-size="18" fill="#2C2A27">1:50</text><text x="220" y="274" font-family="var(--ff-sans)" font-size="20" fill="#2C2A27" font-weight="600">GAT</text><text x="340" y="274" font-family="var(--ff-sans)" font-size="18" fill="#5A564F">class weight.</text><rect x="480" y="256" width="85.90909090909089" height="22" fill="#8A7A5C" opacity="0.55"/><text x="573.9090909090909" y="274" font-family="var(--ff-mono)" font-size="18" fill="#2C2A27">0.315</text><rect x="670" y="256" width="80.29090909090908" height="22" fill="#6B8E23" opacity="0.55"/><text x="758.290909090909" y="274" font-family="var(--ff-mono)" font-size="18" fill="#2C2A27">0.294</text><rect x="860" y="256" width="195.79764705882351" height="22" fill="#B84A2E" opacity="0.8"/><text x="1063.7976470588235" y="274" font-family="var(--ff-mono)" font-size="18" fill="#2C2A27" font-weight="600">0.616</text><line x1="30" y1="280" x2="1250" y2="280" stroke="#D4CDBF" stroke-width="0.8" opacity="0.6"/><text x="50" y="306" font-family="var(--ff-mono)" font-size="18" fill="#2C2A27">1:1</text><text x="220" y="306" font-family="var(--ff-sans)" font-size="20" fill="#2C2A27" font-weight="600">GraphSAGE</text><text x="340" y="306" font-family="var(--ff-sans)" font-size="18" fill="#5A564F">sin balanceo</text><rect x="480" y="288" width="98.80909090909091" height="22" fill="#8A7A5C" opacity="0.55"/><text x="586.8090909090909" y="306" font-family="var(--ff-mono)" font-size="18" fill="#2C2A27">0.362</text><rect x="670" y="288" width="109.63636363636363" height="22" fill="#6B8E23" opacity="0.55"/><text x="787.6363636363636" y="306" font-family="var(--ff-mono)" font-size="18" fill="#2C2A27">0.402</text><rect x="860" y="288" width="187.3164705882353" height="22" fill="#E58A6E" opacity="0.8"/><text x="1055.3164705882352" y="306" font-family="var(--ff-mono)" font-size="18" fill="#2C2A27" font-weight="600">0.590</text><line x1="30" y1="312" x2="1250" y2="312" stroke="#D4CDBF" stroke-width="0.8" opacity="0.6"/><text x="50" y="338" font-family="var(--ff-mono)" font-size="18" fill="#2C2A27">1:10</text><text x="220" y="338" font-family="var(--ff-sans)" font-size="20" fill="#2C2A27" font-weight="600">GCN</text><text x="340" y="338" font-family="var(--ff-sans)" font-size="18" fill="#5A564F">class weight.</text><rect x="480" y="320" width="85.85454545454546" height="22" fill="#8A7A5C" opacity="0.55"/><text x="573.8545454545455" y="338" font-family="var(--ff-mono)" font-size="18" fill="#2C2A27">0.315</text><rect x="670" y="320" width="84.62727272727271" height="22" fill="#6B8E23" opacity="0.55"/><text x="762.6272727272727" y="338" font-family="var(--ff-mono)" font-size="18" fill="#2C2A27">0.310</text><rect x="860" y="320" width="153.80470588235295" height="22" fill="#E58A6E" opacity="0.8"/><text x="1021.8047058823529" y="338" font-family="var(--ff-mono)" font-size="18" fill="#2C2A27" font-weight="600">0.484</text><line x1="30" y1="344" x2="1250" y2="344" stroke="#D4CDBF" stroke-width="0.8" opacity="0.6"/><text x="50" y="370" font-family="var(--ff-mono)" font-size="18" fill="#2C2A27">1:10</text><text x="220" y="370" font-family="var(--ff-sans)" font-size="20" fill="#2C2A27" font-weight="600">GraphSAGE</text><text x="340" y="370" font-family="var(--ff-sans)" font-size="18" fill="#5A564F">class weight.</text><rect x="480" y="352" width="130.49999999999997" height="22" fill="#8A7A5C" opacity="0.55"/><text x="618.5" y="370" font-family="var(--ff-mono)" font-size="18" fill="#2C2A27">0.478</text><rect x="670" y="352" width="127.41818181818181" height="22" fill="#6B8E23" opacity="0.55"/><text x="805.4181818181818" y="370" font-family="var(--ff-mono)" font-size="18" fill="#2C2A27">0.467</text><rect x="860" y="352" width="133.34823529411764" height="22" fill="#E58A6E" opacity="0.8"/><text x="1001.3482352941177" y="370" font-family="var(--ff-mono)" font-size="18" fill="#2C2A27" font-weight="600">0.420</text><line x1="30" y1="376" x2="1250" y2="376" stroke="#D4CDBF" stroke-width="0.8" opacity="0.6"/><text x="50" y="402" font-family="var(--ff-mono)" font-size="18" fill="#2C2A27">1:1</text><text x="220" y="402" font-family="var(--ff-sans)" font-size="20" fill="#2C2A27" font-weight="600">GAT</text><text x="340" y="402" font-family="var(--ff-sans)" font-size="18" fill="#5A564F">class weight.</text><rect x="480" y="384" width="85.90909090909089" height="22" fill="#8A7A5C" opacity="0.55"/><text x="573.9090909090909" y="402" font-family="var(--ff-mono)" font-size="18" fill="#2C2A27">0.315</text><rect x="670" y="384" width="80.59090909090908" height="22" fill="#6B8E23" opacity="0.55"/><text x="758.5909090909091" y="402" font-family="var(--ff-mono)" font-size="18" fill="#2C2A27">0.295</text><rect x="860" y="384" width="128.55176470588236" height="22" fill="#E58A6E" opacity="0.8"/><text x="996.5517647058823" y="402" font-family="var(--ff-mono)" font-size="18" fill="#2C2A27" font-weight="600">0.405</text><line x1="30" y1="408" x2="1250" y2="408" stroke="#D4CDBF" stroke-width="0.8" opacity="0.6"/><rect x="30" y="408" width="1220" height="32" fill="#F4E9D1"/><text x="50" y="434" font-family="var(--ff-mono)" font-size="18" fill="#2C2A27">1:50</text><text x="220" y="434" font-family="var(--ff-sans)" font-size="20" fill="#2C2A27" font-weight="600">GraphSAGE</text><text x="340" y="434" font-family="var(--ff-sans)" font-size="18" fill="#5A564F">focal loss</text><rect x="480" y="416" width="142.5272727272727" height="22" fill="#8A7A5C" opacity="0.55"/><text x="630.5272727272727" y="434" font-family="var(--ff-mono)" font-size="18" fill="#2C2A27">0.523</text><rect x="670" y="416" width="139.49999999999997" height="22" fill="#6B8E23" opacity="0.55"/><text x="817.5" y="434" font-family="var(--ff-mono)" font-size="18" fill="#2C2A27">0.511</text><rect x="860" y="416" width="125.37529411764706" height="22" fill="#8B867B" opacity="0.8"/><text x="993.3752941176471" y="434" font-family="var(--ff-mono)" font-size="18" fill="#2C2A27" font-weight="600">0.395</text><line x1="30" y1="440" x2="1250" y2="440" stroke="#D4CDBF" stroke-width="0.8" opacity="0.6"/><text x="50" y="466" font-family="var(--ff-mono)" font-size="18" fill="#2C2A27">1:50</text><text x="220" y="466" font-family="var(--ff-sans)" font-size="20" fill="#2C2A27" font-weight="600">GraphSAGE</text><text x="340" y="466" font-family="var(--ff-sans)" font-size="18" fill="#5A564F">class weight.</text><rect x="480" y="448" width="140.89090909090908" height="22" fill="#8A7A5C" opacity="0.55"/><text x="628.8909090909091" y="466" font-family="var(--ff-mono)" font-size="18" fill="#2C2A27">0.517</text><rect x="670" y="448" width="138.1909090909091" height="22" fill="#6B8E23" opacity="0.55"/><text x="816.1909090909091" y="466" font-family="var(--ff-mono)" font-size="18" fill="#2C2A27">0.507</text><rect x="860" y="448" width="121.72235294117647" height="22" fill="#8B867B" opacity="0.8"/><text x="989.7223529411765" y="466" font-family="var(--ff-mono)" font-size="18" fill="#2C2A27" font-weight="600">0.383</text><line x1="30" y1="472" x2="1250" y2="472" stroke="#D4CDBF" stroke-width="0.8" opacity="0.6"/><rect x="30" y="472" width="6" height="32" fill="#B84A2E"/><text x="50" y="498" font-family="var(--ff-mono)" font-size="18" fill="#2C2A27">1:30 nativo</text><text x="220" y="498" font-family="var(--ff-sans)" font-size="20" fill="#2C2A27" font-weight="600">GraphSAGE</text><text x="340" y="498" font-family="var(--ff-sans)" font-size="18" fill="#5A564F">sin balanceo</text><rect x="480" y="480" width="97.99090909090908" height="22" fill="#8A7A5C" opacity="0.55"/><text x="585.9909090909091" y="498" font-family="var(--ff-mono)" font-size="18" fill="#2C2A27">0.359</text><rect x="670" y="480" width="110.45454545454545" height="22" fill="#6B8E23" opacity="0.55"/><text x="788.4545454545455" y="498" font-family="var(--ff-mono)" font-size="18" fill="#2C2A27">0.405</text><rect x="860" y="480" width="115.11529411764707" height="22" fill="#8B867B" opacity="0.8"/><text x="983.1152941176471" y="498" font-family="var(--ff-mono)" font-size="18" fill="#2C2A27" font-weight="600">0.362</text><line x1="30" y1="504" x2="1250" y2="504" stroke="#D4CDBF" stroke-width="0.8" opacity="0.6"/><text x="50" y="530" font-family="var(--ff-mono)" font-size="18" fill="#2C2A27">1:10</text><text x="220" y="530" font-family="var(--ff-sans)" font-size="20" fill="#2C2A27" font-weight="600">TAGCN</text><text x="340" y="530" font-family="var(--ff-sans)" font-size="18" fill="#5A564F">sin balanceo</text><rect x="480" y="512" width="102.92727272727272" height="22" fill="#8A7A5C" opacity="0.55"/><text x="590.9272727272727" y="530" font-family="var(--ff-mono)" font-size="18" fill="#2C2A27">0.377</text><rect x="670" y="512" width="100.33636363636363" height="22" fill="#6B8E23" opacity="0.55"/><text x="778.3363636363637" y="530" font-family="var(--ff-mono)" font-size="18" fill="#2C2A27">0.368</text><rect x="860" y="512" width="110.76352941176471" height="22" fill="#8B867B" opacity="0.8"/><text x="978.7635294117647" y="530" font-family="var(--ff-mono)" font-size="18" fill="#2C2A27" font-weight="600">0.349</text><line x1="30" y1="536" x2="1250" y2="536" stroke="#D4CDBF" stroke-width="0.8" opacity="0.6"/><rect x="30" y="536" width="1220" height="32" fill="#F4E9D1"/><text x="50" y="562" font-family="var(--ff-mono)" font-size="18" fill="#2C2A27">1:10</text><text x="220" y="562" font-family="var(--ff-sans)" font-size="20" fill="#2C2A27" font-weight="600">GraphSAGE</text><text x="340" y="562" font-family="var(--ff-sans)" font-size="18" fill="#5A564F">focal loss</text><rect x="480" y="544" width="144.40909090909088" height="22" fill="#8A7A5C" opacity="0.55"/><text x="632.4090909090909" y="562" font-family="var(--ff-mono)" font-size="18" fill="#2C2A27">0.529</text><rect x="670" y="544" width="141.7090909090909" height="22" fill="#6B8E23" opacity="0.55"/><text x="819.709090909091" y="562" font-family="var(--ff-mono)" font-size="18" fill="#2C2A27">0.520</text><rect x="860" y="544" width="95.61176470588235" height="22" fill="#8B867B" opacity="0.8"/><text x="963.6117647058824" y="562" font-family="var(--ff-mono)" font-size="18" fill="#2C2A27" font-weight="600">0.301</text><line x1="30" y1="568" x2="1250" y2="568" stroke="#D4CDBF" stroke-width="0.8" opacity="0.6"/><rect x="30" y="568" width="6" height="32" fill="#B84A2E"/><text x="50" y="594" font-family="var(--ff-mono)" font-size="18" fill="#2C2A27">1:30 nativo</text><text x="220" y="594" font-family="var(--ff-sans)" font-size="20" fill="#2C2A27" font-weight="600">GAT</text><text x="340" y="594" font-family="var(--ff-sans)" font-size="18" fill="#5A564F">sin balanceo</text><rect x="480" y="576" width="83.72727272727272" height="22" fill="#8A7A5C" opacity="0.55"/><text x="571.7272727272727" y="594" font-family="var(--ff-mono)" font-size="18" fill="#2C2A27">0.307</text><rect x="670" y="576" width="77.5090909090909" height="22" fill="#6B8E23" opacity="0.55"/><text x="755.5090909090909" y="594" font-family="var(--ff-mono)" font-size="18" fill="#2C2A27">0.284</text><rect x="860" y="576" width="92.49882352941178" height="22" fill="#8B867B" opacity="0.8"/><text x="960.4988235294118" y="594" font-family="var(--ff-mono)" font-size="18" fill="#2C2A27" font-weight="600">0.291</text><line x1="30" y1="600" x2="1250" y2="600" stroke="#D4CDBF" stroke-width="0.8" opacity="0.6"/><rect x="30" y="600" width="6" height="32" fill="#B84A2E"/><text x="50" y="626" font-family="var(--ff-mono)" font-size="18" fill="#2C2A27">1:30 nativo</text><text x="220" y="626" font-family="var(--ff-sans)" font-size="20" fill="#2C2A27" font-weight="600">GAT</text><text x="340" y="626" font-family="var(--ff-sans)" font-size="18" fill="#5A564F">focal loss</text><rect x="480" y="608" width="88.14545454545453" height="22" fill="#8A7A5C" opacity="0.55"/><text x="576.1454545454545" y="626" font-family="var(--ff-mono)" font-size="18" fill="#2C2A27">0.323</text><rect x="670" y="608" width="82.60909090909091" height="22" fill="#6B8E23" opacity="0.55"/><text x="760.6090909090909" y="626" font-family="var(--ff-mono)" font-size="18" fill="#2C2A27">0.303</text><rect x="860" y="608" width="87.63882352941175" height="22" fill="#8B867B" opacity="0.8"/><text x="955.6388235294118" y="626" font-family="var(--ff-mono)" font-size="18" fill="#2C2A27" font-weight="600">0.276</text><line x1="30" y1="632" x2="1250" y2="632" stroke="#D4CDBF" stroke-width="0.8" opacity="0.6"/><text x="50" y="658" font-family="var(--ff-mono)" font-size="18" fill="#2C2A27">1:1</text><text x="220" y="658" font-family="var(--ff-sans)" font-size="20" fill="#2C2A27" font-weight="600">GraphSAGE</text><text x="340" y="658" font-family="var(--ff-sans)" font-size="18" fill="#5A564F">class weight.</text><rect x="480" y="640" width="93.65454545454543" height="22" fill="#8A7A5C" opacity="0.55"/><text x="581.6545454545454" y="658" font-family="var(--ff-mono)" font-size="18" fill="#2C2A27">0.343</text><rect x="670" y="640" width="104.56363636363636" height="22" fill="#6B8E23" opacity="0.55"/><text x="782.5636363636363" y="658" font-family="var(--ff-mono)" font-size="18" fill="#2C2A27">0.383</text><rect x="860" y="640" width="86.74941176470588" height="22" fill="#8B867B" opacity="0.8"/><text x="954.7494117647059" y="658" font-family="var(--ff-mono)" font-size="18" fill="#2C2A27" font-weight="600">0.273</text><line x1="30" y1="664" x2="1250" y2="664" stroke="#D4CDBF" stroke-width="0.8" opacity="0.6"/><rect x="30" y="664" width="1220" height="32" fill="#EEE8DE"/><text x="50" y="690" font-family="var(--ff-mono)" font-size="18" fill="#2C2A27">1:100</text><text x="220" y="690" font-family="var(--ff-sans)" font-size="20" fill="#2C2A27" font-weight="600">GraphSAGE</text><text x="340" y="690" font-family="var(--ff-sans)" font-size="18" fill="#5A564F">class weight.</text><rect x="480" y="672" width="119.45454545454544" height="22" fill="#8A7A5C" opacity="0.55"/><text x="607.4545454545455" y="690" font-family="var(--ff-mono)" font-size="18" fill="#2C2A27">0.438</text><rect x="670" y="672" width="120.24545454545454" height="22" fill="#6B8E23" opacity="0.55"/><text x="798.2454545454545" y="690" font-family="var(--ff-mono)" font-size="18" fill="#2C2A27">0.441</text><rect x="860" y="672" width="75.88588235294117" height="22" fill="#8B867B" opacity="0.8"/><text x="943.8858823529412" y="690" font-family="var(--ff-mono)" font-size="18" fill="#2C2A27" font-weight="600">0.239</text><line x1="30" y1="696" x2="1250" y2="696" stroke="#D4CDBF" stroke-width="0.8" opacity="0.6"/><rect x="30" y="696" width="6" height="32" fill="#B84A2E"/><text x="50" y="722" font-family="var(--ff-mono)" font-size="18" fill="#2C2A27">1:30 nativo</text><text x="220" y="722" font-family="var(--ff-sans)" font-size="20" fill="#2C2A27" font-weight="600">GraphSAGE</text><text x="340" y="722" font-family="var(--ff-sans)" font-size="18" fill="#5A564F">class weight.</text><rect x="480" y="704" width="143.5090909090909" height="22" fill="#8A7A5C" opacity="0.55"/><text x="631.5090909090909" y="722" font-family="var(--ff-mono)" font-size="18" fill="#2C2A27">0.526</text><rect x="670" y="704" width="140.07272727272724" height="22" fill="#6B8E23" opacity="0.55"/><text x="818.0727272727272" y="722" font-family="var(--ff-mono)" font-size="18" fill="#2C2A27">0.514</text><rect x="860" y="704" width="38.4035294117647" height="22" fill="#8B867B" opacity="0.8"/><text x="906.4035294117647" y="722" font-family="var(--ff-mono)" font-size="18" fill="#2C2A27" font-weight="600">0.121</text><line x1="30" y1="728" x2="1250" y2="728" stroke="#D4CDBF" stroke-width="0.8" opacity="0.6"/><rect x="30" y="728" width="1220" height="32" fill="#EEE8DE"/><rect x="30" y="728" width="6" height="32" fill="#B84A2E"/><text x="50" y="754" font-family="var(--ff-mono)" font-size="18" fill="#2C2A27">1:30 nativo</text><text x="220" y="754" font-family="var(--ff-sans)" font-size="20" fill="#2C2A27" font-weight="600">TAGCN</text><text x="340" y="754" font-family="var(--ff-sans)" font-size="18" fill="#5A564F">focal loss</text><rect x="480" y="736" width="117.32727272727273" height="22" fill="#8A7A5C" opacity="0.55"/><text x="605.3272727272728" y="754" font-family="var(--ff-mono)" font-size="18" fill="#2C2A27">0.430</text><rect x="670" y="736" width="117.70909090909089" height="22" fill="#6B8E23" opacity="0.55"/><text x="795.709090909091" y="754" font-family="var(--ff-mono)" font-size="18" fill="#2C2A27">0.432</text><rect x="860" y="736" width="18.9" height="22" fill="#8B867B" opacity="0.8"/><text x="886.9" y="754" font-family="var(--ff-mono)" font-size="18" fill="#2C2A27" font-weight="600">0.059</text><line x1="30" y1="760" x2="1250" y2="760" stroke="#D4CDBF" stroke-width="0.8" opacity="0.6"/><rect x="30" y="760" width="1220" height="32" fill="#EEE8DE"/><rect x="30" y="760" width="6" height="32" fill="#B84A2E"/><text x="50" y="786" font-family="var(--ff-mono)" font-size="18" fill="#2C2A27">1:30 nativo</text><text x="220" y="786" font-family="var(--ff-sans)" font-size="20" fill="#2C2A27" font-weight="600">GraphSAGE</text><text x="340" y="786" font-family="var(--ff-sans)" font-size="18" fill="#5A564F">focal loss</text><rect x="480" y="768" width="143.29090909090908" height="22" fill="#8A7A5C" opacity="0.55"/><text x="631.290909090909" y="786" font-family="var(--ff-mono)" font-size="18" fill="#2C2A27">0.525</text><rect x="670" y="768" width="139.9090909090909" height="22" fill="#6B8E23" opacity="0.55"/><text x="817.9090909090909" y="786" font-family="var(--ff-mono)" font-size="18" fill="#2C2A27">0.513</text><rect x="860" y="768" width="4.891764705882353" height="22" fill="#8B867B" opacity="0.8"/><text x="872.8917647058823" y="786" font-family="var(--ff-mono)" font-size="18" fill="#2C2A27" font-weight="600">0.015</text></svg>